<svg width="20" height="20" viewBox="0 0 20 20" fill="none" xmlns="http://www.w3.org/2000/svg">
<mask id="mask0_40_2377" style="mask-type:luminance" maskUnits="userSpaceOnUse" x="0" y="0" width="20" height="20">
<path d="M0 0H19.9997V20H0V0Z" fill="white"/>
</mask>
<g mask="url(#mask0_40_2377)">
<path d="M1.94972 0.34082H18.0482C18.2596 0.340805 18.469 0.382434 18.6643 0.46333C18.8596 0.544226 19.0371 0.662804 19.1866 0.812295C19.3361 0.961786 19.4548 1.13926 19.5357 1.33459C19.6166 1.52992 19.6583 1.73927 19.6583 1.9507V18.0495C19.6583 18.2609 19.6166 18.4702 19.5357 18.6656C19.4548 18.8609 19.3362 19.0383 19.1867 19.1878C19.0372 19.3373 18.8597 19.4559 18.6644 19.5367C18.469 19.6176 18.2597 19.6593 18.0483 19.6592H1.94949C1.52261 19.6592 1.1132 19.4897 0.81134 19.1878C0.509475 18.886 0.339874 18.4766 0.339844 18.0497V1.95058C0.339874 1.52364 0.509499 1.11419 0.811407 0.812302C1.11331 0.510416 1.52278 0.34082 1.94972 0.34082Z" fill="#FDB913"/>
<path d="M18.0493 0.340728C18.4762 0.34085 18.8856 0.510523 19.1875 0.812439C19.4893 1.11436 19.6589 1.52379 19.6589 1.95072V18.0494C19.6589 18.4763 19.4893 18.8857 19.1875 19.1876C18.8856 19.4895 18.4762 19.6592 18.0493 19.6593H1.95061C1.73918 19.6593 1.52982 19.6177 1.33448 19.5368C1.13914 19.4559 0.96165 19.3373 0.812149 19.1878C0.662649 19.0383 0.544068 18.8609 0.46318 18.6655C0.382292 18.4702 0.340683 18.2608 0.340728 18.0494V1.95072C0.340683 1.73929 0.382292 1.52992 0.463178 1.33458C0.544065 1.13923 0.662644 0.961733 0.812142 0.812224C0.961641 0.662714 1.13913 0.544123 1.33447 0.463222C1.52981 0.382322 1.73918 0.340698 1.95061 0.340728H18.0493ZM18.0493 0H1.95061C1.43342 0.000546867 0.937577 0.206248 0.571883 0.571964C0.206188 0.93768 0.00051644 1.43354 0 1.95072L0 18.0494C0.000577133 18.5665 0.206272 19.0624 0.571957 19.428C0.937641 19.7937 1.43345 19.9994 1.95061 20H18.0493C18.5664 19.9994 19.0622 19.7937 19.4278 19.428C19.7935 19.0623 19.9991 18.5665 19.9997 18.0494V1.95072C19.9992 1.43357 19.7935 0.937727 19.4279 0.572011C19.0622 0.206295 18.5664 0.000577293 18.0493 0Z" fill="white"/>
<path d="M11.1261 10.2084L11.1245 6.74961L12.0274 6.53535V6.98889C12.0274 6.98889 12.2612 6.39259 12.804 6.25419C12.885 6.22807 12.9712 6.22228 13.0551 6.23732V7.11983C12.8925 7.12196 12.7319 7.15539 12.582 7.2183C12.2484 7.35005 12.0805 7.63753 12.0805 8.07637L12.0811 9.98624L11.1261 10.2084ZM6.36685 11.3332C6.36685 11.3332 6.21996 11.1131 6.21996 10.3348V8.61277L5.75551 8.72329V8.01371L6.2211 7.90377V7.13028L7.18109 6.90362V7.677L7.85933 7.51588V8.22453L7.18109 8.38554C7.18109 8.38554 7.17994 9.79654 7.18109 10.1391C7.18109 10.9366 7.39271 11.0897 7.39271 11.0897L6.36685 11.3332ZM7.95974 9.27552C7.95974 8.66063 8.04731 8.21202 8.23529 7.86774C8.45907 7.45919 8.82574 7.19294 9.36007 7.07129C10.4132 6.83178 10.7934 7.45517 10.7786 8.29109C10.773 8.59005 10.7744 8.73568 10.7744 8.73568L8.91892 9.17178V9.20161C8.91892 9.78575 9.04137 10.0629 9.41148 9.98429C9.73121 9.91692 9.82015 9.71667 9.8454 9.46901C9.84953 9.42907 9.85148 9.32751 9.85148 9.32751L10.7207 9.11921C10.7207 9.11921 10.7227 9.19037 10.7215 9.27024C10.7139 9.60213 10.6174 10.4254 9.4093 10.7111C8.2649 10.9827 7.95986 10.2838 7.95986 9.27541M9.39863 7.71556C9.09118 7.78534 8.92994 8.08693 8.92294 8.58661L9.8563 8.36431C9.8579 8.3417 9.85813 8.2919 9.8579 8.21386C9.8563 7.83664 9.7397 7.63753 9.39863 7.71556ZM16.3044 7.25284C16.2684 6.19944 16.5416 5.3634 17.7169 5.09716C18.466 4.92697 18.7505 5.12183 18.8945 5.31016C19.033 5.48987 19.0865 5.73225 19.0865 6.07171L19.0873 6.13403L18.1678 6.35254L18.1671 6.22458C18.1678 5.82199 18.0559 5.6689 17.7635 5.74212C17.4158 5.82945 17.2753 6.15951 17.2753 6.81572C17.2753 7.04868 17.2765 7.09046 17.2765 7.1219C17.2765 7.78878 17.3675 8.09405 17.7682 8.01016C18.1159 7.93832 18.1634 7.63305 18.1691 7.36542C18.1698 7.32342 18.1715 7.18892 18.1715 7.18892L19.0896 6.97202C19.0896 6.97202 19.0905 7.03985 19.0905 7.11524C19.0882 7.98973 18.6273 8.54082 17.7638 8.74176C16.5742 9.02063 16.3413 8.33321 16.3043 7.25284M13.1259 8.72765C13.1259 7.92638 13.5952 7.67299 14.3017 7.38069C14.937 7.11788 14.9508 6.9874 14.9534 6.75902C14.9569 6.5668 14.8678 6.40234 14.5515 6.48302C14.4461 6.50427 14.3509 6.56053 14.2814 6.64266C14.2119 6.7248 14.1722 6.828 14.1687 6.93553C14.1635 6.99456 14.1615 7.05382 14.1627 7.11306L13.272 7.32342C13.266 7.1459 13.2867 6.96848 13.3335 6.79712C13.4758 6.31799 13.8984 5.99563 14.6279 5.82681C15.5756 5.60842 15.8914 6.02432 15.8925 6.67123V8.20319C15.8925 8.94409 16.0301 9.05265 16.0301 9.05265L15.1557 9.25957C15.1074 9.15852 15.0682 9.05341 15.0385 8.94547C15.0385 8.94547 14.8468 9.42792 14.1866 9.58308C13.4931 9.74662 13.1259 9.31683 13.1259 8.72765ZM14.9474 7.63351C14.8 7.73685 14.6444 7.82797 14.4821 7.90595C14.1906 8.04837 14.0589 8.22407 14.0589 8.49468C14.0589 8.72902 14.2041 8.88292 14.4679 8.81774C14.7509 8.74635 14.9474 8.48229 14.9474 8.11539V7.63351ZM1.3474 13.7578C1.24759 13.7577 1.14966 13.7306 1.06392 13.6795C0.978177 13.6284 0.907797 13.5552 0.860189 13.4675C0.81258 13.3797 0.789504 13.2808 0.79339 13.1811C0.797275 13.0813 0.827979 12.9845 0.882269 12.9007L0.888466 12.8927L0.898795 12.8899L2.20467 12.5817V13.5734L2.18436 13.5781C1.94378 13.636 1.70273 13.692 1.46124 13.746C1.42381 13.7539 1.38566 13.7578 1.3474 13.7578ZM1.3474 15.0264C1.20047 15.0264 1.05954 14.9681 0.955578 14.8642C0.851618 14.7604 0.793136 14.6196 0.792984 14.4726C0.792684 14.3656 0.823722 14.2608 0.882269 14.1711L0.888466 14.162L0.898795 14.1592L2.20467 13.8511V14.8427L2.18436 14.848C1.88816 14.9192 1.53412 15.0011 1.46124 15.0157C1.42373 15.0229 1.3856 15.0265 1.3474 15.0264ZM1.3474 16.2975C1.20041 16.2974 1.05946 16.2389 0.95551 16.135C0.85156 16.0311 0.793106 15.8901 0.792984 15.7432C0.792593 15.6361 0.823638 15.5313 0.882269 15.4418L0.888466 15.4318L2.20467 15.1216V16.1131L2.18436 16.1185C1.87152 16.1938 1.52413 16.2723 1.46124 16.2861C1.42376 16.2936 1.38563 16.2974 1.3474 16.2975ZM2.20455 6.75501V12.3035L1.19327 12.5427L1.19293 6.99406L2.20455 6.75501ZM3.71298 12.0705C3.7141 11.9879 3.69879 11.9058 3.66793 11.8291C3.63706 11.7524 3.59127 11.6826 3.5332 11.6237C3.47514 11.5649 3.40595 11.5181 3.32967 11.4862C3.25339 11.4543 3.17153 11.4379 3.08885 11.4379C3.00617 11.4379 2.92431 11.4543 2.84803 11.4862C2.77175 11.5181 2.70257 11.5649 2.6445 11.6237C2.58643 11.6826 2.54064 11.7524 2.50978 11.8291C2.47891 11.9058 2.4636 11.9879 2.46472 12.0705L2.46587 17.2566C2.46641 17.7045 2.64447 18.1338 2.96101 18.4506C3.27755 18.7674 3.70676 18.9457 4.15459 18.9466C4.62706 18.9466 5.92134 18.9443 5.92134 18.9443L5.92192 16.7808L5.92249 14.3682C5.92264 14.2337 5.88959 14.1012 5.82627 13.9826C5.76294 13.8639 5.67131 13.7627 5.5595 13.688L3.98497 12.6184L3.98451 15.0471C3.98451 15.0648 3.98104 15.0822 3.97429 15.0985C3.96754 15.1148 3.95765 15.1296 3.94518 15.1421C3.93271 15.1545 3.91791 15.1644 3.90162 15.1712C3.88533 15.1779 3.86787 15.1814 3.85024 15.1814C3.83261 15.1814 3.81515 15.1779 3.79886 15.1712C3.78256 15.1644 3.76776 15.1545 3.75529 15.1421C3.74283 15.1296 3.73294 15.1148 3.72619 15.0985C3.71944 15.0822 3.71597 15.0648 3.71597 15.0471C3.71597 15.0211 3.71298 12.3913 3.71298 12.0705ZM4.55591 8.20135C4.36457 8.24575 4.18506 8.33094 4.02967 8.45108C3.87427 8.57122 3.74663 8.7235 3.65549 8.89749V8.50753L2.74462 8.72306L2.74577 11.2134C2.90554 11.1502 3.07965 11.1325 3.24888 11.162C3.41811 11.1916 3.57587 11.2674 3.70472 11.3811V9.77324C3.70472 9.38799 3.89637 9.08031 4.17019 9.01995C4.37619 8.97473 4.54822 9.04841 4.54822 9.4153L4.54891 11.7613L5.50832 11.5363V9.0546C5.50832 8.45291 5.27661 8.03231 4.55591 8.20135ZM18.4956 4.65005C18.3782 4.65016 18.2635 4.61546 18.1659 4.55034C18.0682 4.48522 17.9921 4.3926 17.9472 4.28421C17.9022 4.17582 17.8904 4.05653 17.9133 3.94143C17.9361 3.82634 17.9926 3.7206 18.0756 3.63762C18.1585 3.55464 18.2643 3.49813 18.3794 3.47525C18.4945 3.45237 18.6137 3.46415 18.7221 3.50909C18.8305 3.55403 18.9232 3.63012 18.9883 3.72773C19.0535 3.82533 19.0882 3.94007 19.0881 4.05742C19.0879 4.21453 19.0255 4.36518 18.9144 4.4763C18.8033 4.58742 18.6527 4.64983 18.4956 4.65005ZM18.4956 3.53869C18.393 3.53867 18.2927 3.56906 18.2074 3.62603C18.1221 3.683 18.0556 3.76398 18.0164 3.85873C17.9771 3.95349 17.9668 4.05776 17.9868 4.15836C18.0068 4.25897 18.0561 4.35139 18.1287 4.42393C18.2012 4.49648 18.2936 4.54589 18.3942 4.56592C18.4948 4.58595 18.599 4.57571 18.6938 4.53648C18.7886 4.49725 18.8696 4.43079 18.9266 4.34552C18.9836 4.26025 19.014 4.15999 19.0141 4.05742C19.0139 3.91992 18.9593 3.78808 18.8621 3.69084C18.7649 3.59359 18.6331 3.53887 18.4956 3.53869Z" fill="#231F20"/>
<path d="M18.2812 3.70408H18.5368C18.5618 3.7014 18.5871 3.70439 18.6107 3.71282C18.6344 3.72124 18.6558 3.7349 18.6735 3.75276C18.6911 3.77063 18.7045 3.79224 18.7127 3.816C18.7208 3.83976 18.7235 3.86505 18.7206 3.88999C18.7206 3.98398 18.6789 4.05617 18.6001 4.06845V4.06982C18.6718 4.07717 18.7095 4.11676 18.7132 4.21855C18.7146 4.26446 18.7153 4.32138 18.7175 4.36568C18.7175 4.37815 18.7207 4.39041 18.7267 4.40134C18.7327 4.41226 18.7414 4.42151 18.7519 4.42822H18.6212C18.6087 4.40908 18.6019 4.3868 18.6017 4.36396C18.5976 4.32069 18.5987 4.27984 18.5967 4.22728C18.5948 4.14832 18.5706 4.11366 18.4913 4.11366H18.3967V4.42811H18.2812V3.70408ZM18.4892 4.02656C18.5049 4.02799 18.5207 4.02592 18.5355 4.0205C18.5503 4.01508 18.5637 4.00644 18.5748 3.99521C18.5858 3.98398 18.5942 3.97043 18.5994 3.95555C18.6046 3.94067 18.6064 3.92483 18.6048 3.90916C18.6048 3.83192 18.5715 3.7913 18.4953 3.7913H18.3967V4.02656H18.4892Z" fill="#231F20"/>
</g>
</svg>
