<svg width="20" height="21" viewBox="0 0 20 21" fill="none" xmlns="http://www.w3.org/2000/svg">
<mask id="mask0_40_2327" style="mask-type:luminance" maskUnits="userSpaceOnUse" x="0" y="0" width="20" height="21">
<path d="M0 0.5H19.9997V20.5H0V0.5Z" fill="white"/>
</mask>
<g mask="url(#mask0_40_2327)">
<path d="M1.94972 0.84082H18.0482C18.2596 0.840805 18.469 0.882434 18.6643 0.96333C18.8596 1.04423 19.0371 1.1628 19.1866 1.3123C19.3361 1.46179 19.4548 1.63926 19.5357 1.83459C19.6166 2.02992 19.6583 2.23927 19.6583 2.4507V18.5495C19.6583 18.7609 19.6166 18.9702 19.5357 19.1656C19.4548 19.3609 19.3362 19.5383 19.1867 19.6878C19.0372 19.8373 18.8597 19.9559 18.6644 20.0367C18.469 20.1176 18.2597 20.1593 18.0483 20.1592H1.94949C1.52261 20.1592 1.1132 19.9897 0.81134 19.6878C0.509475 19.386 0.339874 18.9766 0.339844 18.5497V2.45058C0.339874 2.02364 0.509499 1.61419 0.811407 1.3123C1.11331 1.01042 1.52278 0.84082 1.94972 0.84082Z" fill="#FDB913"/>
<path d="M18.0493 0.840728C18.4762 0.84085 18.8856 1.01052 19.1875 1.31244C19.4893 1.61436 19.6589 2.02379 19.6589 2.45072V18.5494C19.6589 18.9763 19.4893 19.3857 19.1875 19.6876C18.8856 19.9895 18.4762 20.1592 18.0493 20.1593H1.95061C1.73918 20.1593 1.52982 20.1177 1.33448 20.0368C1.13914 19.9559 0.96165 19.8373 0.812149 19.6878C0.662649 19.5383 0.544068 19.3609 0.46318 19.1655C0.382292 18.9702 0.340683 18.7608 0.340728 18.5494V2.45072C0.340683 2.23929 0.382292 2.02992 0.463178 1.83458C0.544065 1.63923 0.662644 1.46173 0.812142 1.31222C0.961641 1.16271 1.13913 1.04412 1.33447 0.963222C1.52981 0.882322 1.73918 0.840698 1.95061 0.840728H18.0493ZM18.0493 0.5H1.95061C1.43342 0.500547 0.937577 0.706248 0.571883 1.07196C0.206188 1.43768 0.00051644 1.93354 0 2.45072L0 18.5494C0.000577133 19.0665 0.206272 19.5624 0.571957 19.928C0.937641 20.2937 1.43345 20.4994 1.95061 20.5H18.0493C18.5664 20.4994 19.0622 20.2937 19.4278 19.928C19.7935 19.5623 19.9991 19.0665 19.9997 18.5494V2.45072C19.9992 1.93357 19.7935 1.43773 19.4279 1.07201C19.0622 0.706295 18.5664 0.500577 18.0493 0.5Z" fill="white"/>
<path d="M11.1261 10.7084L11.1245 7.24961L12.0274 7.03535V7.48889C12.0274 7.48889 12.2612 6.89259 12.804 6.75419C12.885 6.72807 12.9712 6.72228 13.0551 6.73732V7.61983C12.8925 7.62196 12.7319 7.65539 12.582 7.7183C12.2484 7.85005 12.0805 8.13753 12.0805 8.57637L12.0811 10.4862L11.1261 10.7084ZM6.36685 11.8332C6.36685 11.8332 6.21996 11.6131 6.21996 10.8348V9.11277L5.75551 9.22329V8.51371L6.2211 8.40377V7.63028L7.18109 7.40362V8.177L7.85933 8.01588V8.72453L7.18109 8.88554C7.18109 8.88554 7.17994 10.2965 7.18109 10.6391C7.18109 11.4366 7.39271 11.5897 7.39271 11.5897L6.36685 11.8332ZM7.95974 9.77552C7.95974 9.16063 8.04731 8.71202 8.23529 8.36774C8.45907 7.95919 8.82574 7.69294 9.36007 7.57129C10.4132 7.33178 10.7934 7.95517 10.7786 8.79109C10.773 9.09005 10.7744 9.23568 10.7744 9.23568L8.91892 9.67178V9.70161C8.91892 10.2858 9.04137 10.5629 9.41148 10.4843C9.73121 10.4169 9.82015 10.2167 9.8454 9.96901C9.84953 9.92907 9.85148 9.82751 9.85148 9.82751L10.7207 9.61921C10.7207 9.61921 10.7227 9.69037 10.7215 9.77024C10.7139 10.1021 10.6174 10.9254 9.4093 11.2111C8.2649 11.4827 7.95986 10.7838 7.95986 9.77541M9.39863 8.21556C9.09118 8.28534 8.92994 8.58693 8.92294 9.08661L9.8563 8.86431C9.8579 8.8417 9.85813 8.7919 9.8579 8.71386C9.8563 8.33664 9.7397 8.13753 9.39863 8.21556ZM16.3044 7.75284C16.2684 6.69944 16.5416 5.8634 17.7169 5.59716C18.466 5.42697 18.7505 5.62183 18.8945 5.81016C19.033 5.98987 19.0865 6.23225 19.0865 6.57171L19.0873 6.63403L18.1678 6.85254L18.1671 6.72458C18.1678 6.32199 18.0559 6.1689 17.7635 6.24212C17.4158 6.32945 17.2753 6.65951 17.2753 7.31572C17.2753 7.54868 17.2765 7.59046 17.2765 7.6219C17.2765 8.28878 17.3675 8.59405 17.7682 8.51016C18.1159 8.43832 18.1634 8.13305 18.1691 7.86542C18.1698 7.82342 18.1715 7.68892 18.1715 7.68892L19.0896 7.47202C19.0896 7.47202 19.0905 7.53985 19.0905 7.61524C19.0882 8.48973 18.6273 9.04082 17.7638 9.24176C16.5742 9.52063 16.3413 8.83321 16.3043 7.75284M13.1259 9.22765C13.1259 8.42638 13.5952 8.17299 14.3017 7.88069C14.937 7.61788 14.9508 7.4874 14.9534 7.25902C14.9569 7.0668 14.8678 6.90234 14.5515 6.98302C14.4461 7.00427 14.3509 7.06053 14.2814 7.14266C14.2119 7.2248 14.1722 7.328 14.1687 7.43553C14.1635 7.49456 14.1615 7.55382 14.1627 7.61306L13.272 7.82342C13.266 7.6459 13.2867 7.46848 13.3335 7.29712C13.4758 6.81799 13.8984 6.49563 14.6279 6.32681C15.5756 6.10842 15.8914 6.52432 15.8925 7.17123V8.70319C15.8925 9.44409 16.0301 9.55265 16.0301 9.55265L15.1557 9.75957C15.1074 9.65852 15.0682 9.55341 15.0385 9.44547C15.0385 9.44547 14.8468 9.92792 14.1866 10.0831C13.4931 10.2466 13.1259 9.81683 13.1259 9.22765ZM14.9474 8.13351C14.8 8.23685 14.6444 8.32797 14.4821 8.40595C14.1906 8.54837 14.0589 8.72407 14.0589 8.99468C14.0589 9.22902 14.2041 9.38292 14.4679 9.31774C14.7509 9.24635 14.9474 8.98229 14.9474 8.61539V8.13351ZM1.3474 14.2578C1.24759 14.2577 1.14966 14.2306 1.06392 14.1795C0.978177 14.1284 0.907797 14.0552 0.860189 13.9675C0.81258 13.8797 0.789504 13.7808 0.79339 13.6811C0.797275 13.5813 0.827979 13.4845 0.882269 13.4007L0.888466 13.3927L0.898795 13.3899L2.20467 13.0817V14.0734L2.18436 14.0781C1.94378 14.136 1.70273 14.192 1.46124 14.246C1.42381 14.2539 1.38566 14.2578 1.3474 14.2578ZM1.3474 15.5264C1.20047 15.5264 1.05954 15.4681 0.955578 15.3642C0.851618 15.2604 0.793136 15.1196 0.792984 14.9726C0.792684 14.8656 0.823722 14.7608 0.882269 14.6711L0.888466 14.662L0.898795 14.6592L2.20467 14.3511V15.3427L2.18436 15.348C1.88816 15.4192 1.53412 15.5011 1.46124 15.5157C1.42373 15.5229 1.3856 15.5265 1.3474 15.5264ZM1.3474 16.7975C1.20041 16.7974 1.05946 16.7389 0.95551 16.635C0.85156 16.5311 0.793106 16.3901 0.792984 16.2432C0.792593 16.1361 0.823638 16.0313 0.882269 15.9418L0.888466 15.9318L2.20467 15.6216V16.6131L2.18436 16.6185C1.87152 16.6938 1.52413 16.7723 1.46124 16.7861C1.42376 16.7936 1.38563 16.7974 1.3474 16.7975ZM2.20455 7.25501V12.8035L1.19327 13.0427L1.19293 7.49406L2.20455 7.25501ZM3.71298 12.5705C3.7141 12.4879 3.69879 12.4058 3.66793 12.3291C3.63706 12.2524 3.59127 12.1826 3.5332 12.1237C3.47514 12.0649 3.40595 12.0181 3.32967 11.9862C3.25339 11.9543 3.17153 11.9379 3.08885 11.9379C3.00617 11.9379 2.92431 11.9543 2.84803 11.9862C2.77175 12.0181 2.70257 12.0649 2.6445 12.1237C2.58643 12.1826 2.54064 12.2524 2.50978 12.3291C2.47891 12.4058 2.4636 12.4879 2.46472 12.5705L2.46587 17.7566C2.46641 18.2045 2.64447 18.6338 2.96101 18.9506C3.27755 19.2674 3.70676 19.4457 4.15459 19.4466C4.62706 19.4466 5.92134 19.4443 5.92134 19.4443L5.92192 17.2808L5.92249 14.8682C5.92264 14.7337 5.88959 14.6012 5.82627 14.4826C5.76294 14.3639 5.67131 14.2627 5.5595 14.188L3.98497 13.1184L3.98451 15.5471C3.98451 15.5648 3.98104 15.5822 3.97429 15.5985C3.96754 15.6148 3.95765 15.6296 3.94518 15.6421C3.93271 15.6545 3.91791 15.6644 3.90162 15.6712C3.88533 15.6779 3.86787 15.6814 3.85024 15.6814C3.83261 15.6814 3.81515 15.6779 3.79886 15.6712C3.78256 15.6644 3.76776 15.6545 3.75529 15.6421C3.74283 15.6296 3.73294 15.6148 3.72619 15.5985C3.71944 15.5822 3.71597 15.5648 3.71597 15.5471C3.71597 15.5211 3.71298 12.8913 3.71298 12.5705ZM4.55591 8.70135C4.36457 8.74575 4.18506 8.83094 4.02967 8.95108C3.87427 9.07122 3.74663 9.2235 3.65549 9.39749V9.00753L2.74462 9.22306L2.74577 11.7134C2.90554 11.6502 3.07965 11.6325 3.24888 11.662C3.41811 11.6916 3.57587 11.7674 3.70472 11.8811V10.2732C3.70472 9.88799 3.89637 9.58031 4.17019 9.51995C4.37619 9.47473 4.54822 9.54841 4.54822 9.9153L4.54891 12.2613L5.50832 12.0363V9.5546C5.50832 8.95291 5.27661 8.53231 4.55591 8.70135ZM18.4956 5.15005C18.3782 5.15016 18.2635 5.11546 18.1659 5.05034C18.0682 4.98522 17.9921 4.8926 17.9472 4.78421C17.9022 4.67582 17.8904 4.55653 17.9133 4.44143C17.9361 4.32634 17.9926 4.2206 18.0756 4.13762C18.1585 4.05464 18.2643 3.99813 18.3794 3.97525C18.4945 3.95237 18.6137 3.96415 18.7221 4.00909C18.8305 4.05403 18.9232 4.13012 18.9883 4.22773C19.0535 4.32533 19.0882 4.44007 19.0881 4.55742C19.0879 4.71453 19.0255 4.86518 18.9144 4.9763C18.8033 5.08742 18.6527 5.14983 18.4956 5.15005ZM18.4956 4.03869C18.393 4.03867 18.2927 4.06906 18.2074 4.12603C18.1221 4.183 18.0556 4.26398 18.0164 4.35873C17.9771 4.45349 17.9668 4.55776 17.9868 4.65836C18.0068 4.75897 18.0561 4.85139 18.1287 4.92393C18.2012 4.99648 18.2936 5.04589 18.3942 5.06592C18.4948 5.08595 18.599 5.07571 18.6938 5.03648C18.7886 4.99725 18.8696 4.93079 18.9266 4.84552C18.9836 4.76025 19.014 4.65999 19.0141 4.55742C19.0139 4.41992 18.9593 4.28808 18.8621 4.19084C18.7649 4.09359 18.6331 4.03887 18.4956 4.03869Z" fill="#231F20"/>
<path d="M18.2812 4.20408H18.5368C18.5618 4.2014 18.5871 4.20439 18.6107 4.21282C18.6344 4.22124 18.6558 4.2349 18.6735 4.25276C18.6911 4.27063 18.7045 4.29224 18.7127 4.316C18.7208 4.33976 18.7235 4.36505 18.7206 4.38999C18.7206 4.48398 18.6789 4.55617 18.6001 4.56845V4.56982C18.6718 4.57717 18.7095 4.61676 18.7132 4.71855C18.7146 4.76446 18.7153 4.82138 18.7175 4.86568C18.7175 4.87815 18.7207 4.89041 18.7267 4.90134C18.7327 4.91226 18.7414 4.92151 18.7519 4.92822H18.6212C18.6087 4.90908 18.6019 4.8868 18.6017 4.86396C18.5976 4.82069 18.5987 4.77984 18.5967 4.72728C18.5948 4.64832 18.5706 4.61366 18.4913 4.61366H18.3967V4.92811H18.2812V4.20408ZM18.4892 4.52656C18.5049 4.52799 18.5207 4.52592 18.5355 4.5205C18.5503 4.51508 18.5637 4.50644 18.5748 4.49521C18.5858 4.48398 18.5942 4.47043 18.5994 4.45555C18.6046 4.44067 18.6064 4.42483 18.6048 4.40916C18.6048 4.33192 18.5715 4.2913 18.4953 4.2913H18.3967V4.52656H18.4892Z" fill="#231F20"/>
</g>
</svg>
