<svg width="32" height="33" viewBox="0 0 32 33" fill="none" xmlns="http://www.w3.org/2000/svg">
<path d="M12.0078 20.2227C12.8362 20.2227 13.5078 19.5511 13.5078 18.7227C13.5078 17.8942 12.8362 17.2227 12.0078 17.2227C11.1794 17.2227 10.5078 17.8942 10.5078 18.7227C10.5078 19.5511 11.1794 20.2227 12.0078 20.2227Z" fill="#858584"/>
<path d="M20.0078 20.2227C20.8362 20.2227 21.5078 19.5511 21.5078 18.7227C21.5078 17.8942 20.8362 17.2227 20.0078 17.2227C19.1794 17.2227 18.5078 17.8942 18.5078 18.7227C18.5078 19.5511 19.1794 20.2227 20.0078 20.2227Z" fill="#858584"/>
<path fill-rule="evenodd" clip-rule="evenodd" d="M16.0015 10.7232C13.8337 10.7072 11.6766 11.0291 9.60793 11.6775C9.08092 11.8427 8.5198 11.5493 8.35463 11.0223C8.18946 10.4953 8.48279 9.93419 9.00979 9.76902C11.2744 9.05927 13.6357 8.70645 16.0089 8.72323C18.382 8.70645 20.7433 9.05927 23.0079 9.76902C23.5349 9.93419 23.8283 10.4953 23.6631 11.0223C23.4979 11.5493 22.9368 11.8427 22.4098 11.6775C20.3411 11.0291 18.1841 10.7072 16.0163 10.7232H16.0015Z" fill="#858584"/>
<path fill-rule="evenodd" clip-rule="evenodd" d="M8.35463 22.4239C8.5198 21.8968 9.08092 21.6035 9.60793 21.7687C11.6766 22.417 13.8337 22.739 16.0015 22.723H16.0163C18.1841 22.739 20.3411 22.417 22.4098 21.7687C22.9368 21.6035 23.4979 21.8968 23.6631 22.4239C23.8283 22.9509 23.5349 23.512 23.0079 23.6772C20.7433 24.3869 18.382 24.7397 16.0089 24.7229C13.6357 24.7397 11.2744 24.3869 9.00979 23.6772C8.48279 23.512 8.18946 22.9509 8.35463 22.4239Z" fill="#858584"/>
<path fill-rule="evenodd" clip-rule="evenodd" d="M20.2273 5.53289C20.6577 5.29019 21.1624 5.21435 21.6451 5.3198C22.9627 5.60534 24.2526 6.00592 25.5002 6.51692C25.781 6.6252 26.0332 6.79664 26.2372 7.01806C26.4435 7.24186 26.5948 7.51053 26.6794 7.80283L30.9152 21.9472C31.0257 22.3157 31.0282 22.7081 30.9225 23.078C30.8168 23.4479 30.6073 23.7798 30.3189 24.0343L30.3137 24.0388C28.2463 25.8378 25.4449 27.1994 22.263 27.9794C21.821 28.092 21.3535 28.0482 20.9401 27.8553C20.5283 27.6631 20.1955 27.3349 19.9976 26.9261L18.4894 23.9346C18.2407 23.4414 18.439 22.8401 18.9321 22.5914C19.4253 22.3428 20.0266 22.541 20.2752 23.0342L21.7877 26.0342L21.7888 26.0364C24.7267 25.3159 27.2209 24.0788 29.0009 22.53L29.6573 23.2844L28.9957 22.5345C28.9975 22.5329 28.9988 22.5309 28.9995 22.5286C29.0001 22.5263 29.0001 22.5238 28.9994 22.5215L24.7634 8.37633C24.7598 8.37493 24.7563 8.3735 24.7527 8.37205C23.6098 7.90317 22.4279 7.5358 21.2205 7.27421L21.2184 7.27373C21.2154 7.27307 21.2122 7.27354 21.2096 7.27505C21.2071 7.27641 21.2053 7.27852 21.2042 7.28105L20.2193 10.2607C20.0459 10.7851 19.4803 11.0697 18.956 10.8964C18.4316 10.723 18.147 10.1574 18.3203 9.63304L19.3107 6.63684C19.4702 6.16875 19.7965 5.77578 20.2273 5.53289Z" fill="#858584"/>
<path fill-rule="evenodd" clip-rule="evenodd" d="M10.806 7.27505C10.8033 7.27354 10.8002 7.27307 10.7972 7.27373L10.795 7.2742C9.5877 7.5358 8.40573 7.90316 7.26283 8.37205C7.2593 8.3735 7.25576 8.37492 7.25222 8.37633L3.01624 22.5213C3.01555 22.5236 3.01545 22.5263 3.01611 22.5286C3.0167 22.5306 3.01781 22.5325 3.01933 22.534C4.79902 24.081 7.29141 25.3166 10.2268 26.0364L10.2278 26.0342L11.7403 23.0342C11.989 22.541 12.5903 22.3428 13.0835 22.5914C13.5766 22.8401 13.7748 23.4414 13.5262 23.9346L12.018 26.9261C11.8201 27.3349 11.4873 27.6631 11.0755 27.8553C10.6621 28.0482 10.1946 28.092 9.75262 27.9794C6.57069 27.1994 3.76932 25.8377 1.70185 24.0388L1.69667 24.0343C1.4082 23.7798 1.19874 23.4479 1.09306 23.078C0.987403 22.7082 0.989919 22.3159 1.1003 21.9475C1.10028 21.9476 1.10033 21.9474 1.1003 21.9475L5.3362 7.80285C5.42073 7.51055 5.57207 7.24187 5.77833 7.01806C5.98239 6.79664 6.2346 6.6252 6.51541 6.51692C7.76327 6.00577 9.05359 5.60512 10.3715 5.31956C10.8539 5.21447 11.3582 5.29038 11.7883 5.53289C12.2191 5.77577 12.5453 6.16876 12.7048 6.63686L12.7078 6.64553L13.6952 9.63304C13.8686 10.1574 13.584 10.723 13.0596 10.8964C12.5352 11.0697 11.9696 10.7851 11.7963 10.2607L10.8114 7.28105C10.8103 7.27852 10.8084 7.27641 10.806 7.27505Z" fill="#858584"/>
<path d="M12.0078 20.2227C12.8362 20.2227 13.5078 19.5511 13.5078 18.7227C13.5078 17.8942 12.8362 17.2227 12.0078 17.2227C11.1794 17.2227 10.5078 17.8942 10.5078 18.7227C10.5078 19.5511 11.1794 20.2227 12.0078 20.2227Z" fill="#858584"/>
<path d="M20.0078 20.2227C20.8362 20.2227 21.5078 19.5511 21.5078 18.7227C21.5078 17.8942 20.8362 17.2227 20.0078 17.2227C19.1794 17.2227 18.5078 17.8942 18.5078 18.7227C18.5078 19.5511 19.1794 20.2227 20.0078 20.2227Z" fill="#858584"/>
<path fill-rule="evenodd" clip-rule="evenodd" d="M16.0015 10.7232C13.8337 10.7072 11.6766 11.0291 9.60793 11.6775C9.08092 11.8427 8.5198 11.5493 8.35463 11.0223C8.18946 10.4953 8.48279 9.93419 9.00979 9.76902C11.2744 9.05927 13.6357 8.70645 16.0089 8.72323C18.382 8.70645 20.7433 9.05927 23.0079 9.76902C23.5349 9.93419 23.8283 10.4953 23.6631 11.0223C23.4979 11.5493 22.9368 11.8427 22.4098 11.6775C20.3411 11.0291 18.1841 10.7072 16.0163 10.7232H16.0015Z" fill="#858584"/>
<path fill-rule="evenodd" clip-rule="evenodd" d="M8.35463 22.4239C8.5198 21.8968 9.08092 21.6035 9.60793 21.7687C11.6766 22.417 13.8337 22.739 16.0015 22.723H16.0163C18.1841 22.739 20.3411 22.417 22.4098 21.7687C22.9368 21.6035 23.4979 21.8968 23.6631 22.4239C23.8283 22.9509 23.5349 23.512 23.0079 23.6772C20.7433 24.3869 18.382 24.7397 16.0089 24.7229C13.6357 24.7397 11.2744 24.3869 9.00979 23.6772C8.48279 23.512 8.18946 22.9509 8.35463 22.4239Z" fill="#858584"/>
<path fill-rule="evenodd" clip-rule="evenodd" d="M20.2273 5.53289C20.6577 5.29019 21.1624 5.21435 21.6451 5.3198C22.9627 5.60534 24.2526 6.00592 25.5002 6.51692C25.781 6.6252 26.0332 6.79664 26.2372 7.01806C26.4435 7.24186 26.5948 7.51053 26.6794 7.80283L30.9152 21.9472C31.0257 22.3157 31.0282 22.7081 30.9225 23.078C30.8168 23.4479 30.6073 23.7798 30.3189 24.0343L30.3137 24.0388C28.2463 25.8378 25.4449 27.1994 22.263 27.9794C21.821 28.092 21.3535 28.0482 20.9401 27.8553C20.5283 27.6631 20.1955 27.3349 19.9976 26.9261L18.4894 23.9346C18.2407 23.4414 18.439 22.8401 18.9321 22.5914C19.4253 22.3428 20.0266 22.541 20.2752 23.0342L21.7877 26.0342L21.7888 26.0364C24.7267 25.3159 27.2209 24.0788 29.0009 22.53L29.6573 23.2844L28.9957 22.5345C28.9975 22.5329 28.9988 22.5309 28.9995 22.5286C29.0001 22.5263 29.0001 22.5238 28.9994 22.5215L24.7634 8.37633C24.7598 8.37493 24.7563 8.3735 24.7527 8.37205C23.6098 7.90317 22.4279 7.5358 21.2205 7.27421L21.2184 7.27373C21.2154 7.27307 21.2122 7.27354 21.2096 7.27505C21.2071 7.27641 21.2053 7.27852 21.2042 7.28105L20.2193 10.2607C20.0459 10.7851 19.4803 11.0697 18.956 10.8964C18.4316 10.723 18.147 10.1574 18.3203 9.63304L19.3107 6.63684C19.4702 6.16875 19.7965 5.77578 20.2273 5.53289Z" fill="#858584"/>
<path fill-rule="evenodd" clip-rule="evenodd" d="M10.806 7.27505C10.8033 7.27354 10.8002 7.27307 10.7972 7.27373L10.795 7.2742C9.5877 7.5358 8.40573 7.90316 7.26283 8.37205C7.2593 8.3735 7.25576 8.37492 7.25222 8.37633L3.01624 22.5213C3.01555 22.5236 3.01545 22.5263 3.01611 22.5286C3.0167 22.5306 3.01781 22.5325 3.01933 22.534C4.79902 24.081 7.29141 25.3166 10.2268 26.0364L10.2278 26.0342L11.7403 23.0342C11.989 22.541 12.5903 22.3428 13.0835 22.5914C13.5766 22.8401 13.7748 23.4414 13.5262 23.9346L12.018 26.9261C11.8201 27.3349 11.4873 27.6631 11.0755 27.8553C10.6621 28.0482 10.1946 28.092 9.75262 27.9794C6.57069 27.1994 3.76932 25.8377 1.70185 24.0388L1.69667 24.0343C1.4082 23.7798 1.19874 23.4479 1.09306 23.078C0.987403 22.7082 0.989919 22.3159 1.1003 21.9475C1.10028 21.9476 1.10033 21.9474 1.1003 21.9475L5.3362 7.80285C5.42073 7.51055 5.57207 7.24187 5.77833 7.01806C5.98239 6.79664 6.2346 6.6252 6.51541 6.51692C7.76327 6.00577 9.05359 5.60512 10.3715 5.31956C10.8539 5.21447 11.3582 5.29038 11.7883 5.53289C12.2191 5.77577 12.5453 6.16876 12.7048 6.63686L12.7078 6.64553L13.6952 9.63304C13.8686 10.1574 13.584 10.723 13.0596 10.8964C12.5352 11.0697 11.9696 10.7851 11.7963 10.2607L10.8114 7.28105C10.8103 7.27852 10.8084 7.27641 10.806 7.27505Z" fill="#858584"/>
</svg>
