<svg width="32" height="33" viewBox="0 0 32 33" fill="none" xmlns="http://www.w3.org/2000/svg">
<path d="M12.0078 20.2227C12.8362 20.2227 13.5078 19.5511 13.5078 18.7227C13.5078 17.8942 12.8362 17.2227 12.0078 17.2227C11.1794 17.2227 10.5078 17.8942 10.5078 18.7227C10.5078 19.5511 11.1794 20.2227 12.0078 20.2227Z" fill="#858584"/>
<path d="M20.0078 20.2227C20.8362 20.2227 21.5078 19.5511 21.5078 18.7227C21.5078 17.8942 20.8362 17.2227 20.0078 17.2227C19.1794 17.2227 18.5078 17.8942 18.5078 18.7227C18.5078 19.5511 19.1794 20.2227 20.0078 20.2227Z" fill="#858584"/>
<path fill-rule="evenodd" clip-rule="evenodd" d="M16.0015 10.7222C13.8337 10.7062 11.6766 11.0282 9.60793 11.6765C9.08092 11.8417 8.5198 11.5484 8.35463 11.0213C8.18946 10.4943 8.48279 9.93322 9.00979 9.76805C11.2744 9.05829 13.6357 8.70547 16.0089 8.72225C18.382 8.70547 20.7433 9.05829 23.0079 9.76805C23.5349 9.93322 23.8283 10.4943 23.6631 11.0213C23.4979 11.5484 22.9368 11.8417 22.4098 11.6765C20.3411 11.0282 18.1841 10.7062 16.0163 10.7222H16.0015Z" fill="#858584"/>
<path fill-rule="evenodd" clip-rule="evenodd" d="M8.35463 22.4239C8.5198 21.8968 9.08092 21.6035 9.60793 21.7687C11.6766 22.417 13.8337 22.739 16.0015 22.723H16.0163C18.1841 22.739 20.3411 22.417 22.4098 21.7687C22.9368 21.6035 23.4979 21.8968 23.6631 22.4239C23.8283 22.9509 23.5349 23.512 23.0079 23.6772C20.7433 24.3869 18.382 24.7397 16.0089 24.7229C13.6357 24.7397 11.2744 24.3869 9.00979 23.6772C8.48279 23.512 8.18946 22.9509 8.35463 22.4239Z" fill="#858584"/>
<path fill-rule="evenodd" clip-rule="evenodd" d="M20.2273 5.53387C20.6577 5.29117 21.1624 5.21533 21.6451 5.32077C22.9627 5.60631 24.2526 6.00689 25.5002 6.5179C25.781 6.62617 26.0332 6.79762 26.2372 7.01904C26.4435 7.24284 26.5948 7.51151 26.6794 7.80381L30.9152 21.9482C31.0257 22.3167 31.0282 22.7091 30.9225 23.079C30.8168 23.4489 30.6073 23.7807 30.3189 24.0352L30.3137 24.0398C28.2463 25.8387 25.4449 27.2004 22.263 27.9804C21.821 28.093 21.3535 28.0492 20.9401 27.8562C20.5283 27.6641 20.1955 27.3359 19.9976 26.9271L18.4894 23.9355C18.2407 23.4424 18.439 22.8411 18.9321 22.5924C19.4253 22.3438 20.0266 22.542 20.2752 23.0352L21.7877 26.0352L21.7888 26.0374C24.7267 25.3169 27.2209 24.0798 29.0009 22.531L29.6573 23.2854L28.9957 22.5355C28.9975 22.5339 28.9988 22.5318 28.9995 22.5296C29.0001 22.5273 29.0001 22.5248 28.9994 22.5225L24.7634 8.37731C24.7598 8.3759 24.7563 8.37448 24.7527 8.37303C23.6098 7.90414 22.4279 7.53678 21.2205 7.27518L21.2184 7.27471C21.2154 7.27405 21.2122 7.27452 21.2096 7.27603C21.2071 7.27739 21.2053 7.2795 21.2042 7.28203L20.2193 10.2617C20.0459 10.7861 19.4803 11.0707 18.956 10.8973C18.4316 10.724 18.147 10.1584 18.3203 9.63402L19.3107 6.63782C19.4702 6.16972 19.7965 5.77675 20.2273 5.53387Z" fill="#858584"/>
<path fill-rule="evenodd" clip-rule="evenodd" d="M10.806 7.27603C10.8033 7.27452 10.8002 7.27405 10.7972 7.27471L10.795 7.27518C9.5877 7.53677 8.40573 7.90414 7.26283 8.37303C7.2593 8.37447 7.25576 8.3759 7.25222 8.37731L3.01624 22.5222C3.01555 22.5245 3.01545 22.5273 3.01611 22.5296C3.0167 22.5316 3.01781 22.5335 3.01933 22.535C4.79902 24.0819 7.29141 25.3175 10.2268 26.0374L10.2278 26.0352L11.7403 23.0352C11.989 22.542 12.5903 22.3438 13.0835 22.5924C13.5766 22.8411 13.7748 23.4424 13.5262 23.9355L12.018 26.9271C11.8201 27.3359 11.4873 27.6641 11.0755 27.8562C10.6621 28.0492 10.1946 28.093 9.75262 27.9804C6.57069 27.2004 3.76932 25.8387 1.70185 24.0398L1.69667 24.0352C1.4082 23.7807 1.19874 23.4489 1.09306 23.079C0.987403 22.7092 0.989919 22.3169 1.1003 21.9485C1.10028 21.9486 1.10033 21.9484 1.1003 21.9485L5.3362 7.80383C5.42073 7.51153 5.57207 7.24284 5.77833 7.01904C5.98239 6.79761 6.2346 6.62617 6.51541 6.5179C7.76327 6.00675 9.05359 5.60609 10.3715 5.32054C10.8539 5.21544 11.3582 5.29135 11.7883 5.53387C12.2191 5.77675 12.5453 6.16973 12.7048 6.63783L12.7078 6.6465L13.6952 9.63402C13.8686 10.1584 13.584 10.724 13.0596 10.8973C12.5352 11.0707 11.9696 10.7861 11.7963 10.2617L10.8114 7.28202C10.8103 7.2795 10.8084 7.27739 10.806 7.27603Z" fill="#858584"/>
<path d="M12.0078 20.2227C12.8362 20.2227 13.5078 19.5511 13.5078 18.7227C13.5078 17.8942 12.8362 17.2227 12.0078 17.2227C11.1794 17.2227 10.5078 17.8942 10.5078 18.7227C10.5078 19.5511 11.1794 20.2227 12.0078 20.2227Z" fill="#858584"/>
<path d="M20.0078 20.2227C20.8362 20.2227 21.5078 19.5511 21.5078 18.7227C21.5078 17.8942 20.8362 17.2227 20.0078 17.2227C19.1794 17.2227 18.5078 17.8942 18.5078 18.7227C18.5078 19.5511 19.1794 20.2227 20.0078 20.2227Z" fill="#858584"/>
<path fill-rule="evenodd" clip-rule="evenodd" d="M16.0015 10.7222C13.8337 10.7062 11.6766 11.0282 9.60793 11.6765C9.08092 11.8417 8.5198 11.5484 8.35463 11.0213C8.18946 10.4943 8.48279 9.93322 9.00979 9.76805C11.2744 9.05829 13.6357 8.70547 16.0089 8.72225C18.382 8.70547 20.7433 9.05829 23.0079 9.76805C23.5349 9.93322 23.8283 10.4943 23.6631 11.0213C23.4979 11.5484 22.9368 11.8417 22.4098 11.6765C20.3411 11.0282 18.1841 10.7062 16.0163 10.7222H16.0015Z" fill="#858584"/>
<path fill-rule="evenodd" clip-rule="evenodd" d="M8.35463 22.4239C8.5198 21.8968 9.08092 21.6035 9.60793 21.7687C11.6766 22.417 13.8337 22.739 16.0015 22.723H16.0163C18.1841 22.739 20.3411 22.417 22.4098 21.7687C22.9368 21.6035 23.4979 21.8968 23.6631 22.4239C23.8283 22.9509 23.5349 23.512 23.0079 23.6772C20.7433 24.3869 18.382 24.7397 16.0089 24.7229C13.6357 24.7397 11.2744 24.3869 9.00979 23.6772C8.48279 23.512 8.18946 22.9509 8.35463 22.4239Z" fill="#858584"/>
<path fill-rule="evenodd" clip-rule="evenodd" d="M20.2273 5.53387C20.6577 5.29117 21.1624 5.21533 21.6451 5.32077C22.9627 5.60631 24.2526 6.00689 25.5002 6.5179C25.781 6.62617 26.0332 6.79762 26.2372 7.01904C26.4435 7.24284 26.5948 7.51151 26.6794 7.80381L30.9152 21.9482C31.0257 22.3167 31.0282 22.7091 30.9225 23.079C30.8168 23.4489 30.6073 23.7807 30.3189 24.0352L30.3137 24.0398C28.2463 25.8387 25.4449 27.2004 22.263 27.9804C21.821 28.093 21.3535 28.0492 20.9401 27.8562C20.5283 27.6641 20.1955 27.3359 19.9976 26.9271L18.4894 23.9355C18.2407 23.4424 18.439 22.8411 18.9321 22.5924C19.4253 22.3438 20.0266 22.542 20.2752 23.0352L21.7877 26.0352L21.7888 26.0374C24.7267 25.3169 27.2209 24.0798 29.0009 22.531L29.6573 23.2854L28.9957 22.5355C28.9975 22.5339 28.9988 22.5318 28.9995 22.5296C29.0001 22.5273 29.0001 22.5248 28.9994 22.5225L24.7634 8.37731C24.7598 8.3759 24.7563 8.37448 24.7527 8.37303C23.6098 7.90414 22.4279 7.53678 21.2205 7.27518L21.2184 7.27471C21.2154 7.27405 21.2122 7.27452 21.2096 7.27603C21.2071 7.27739 21.2053 7.2795 21.2042 7.28203L20.2193 10.2617C20.0459 10.7861 19.4803 11.0707 18.956 10.8973C18.4316 10.724 18.147 10.1584 18.3203 9.63402L19.3107 6.63782C19.4702 6.16972 19.7965 5.77675 20.2273 5.53387Z" fill="#858584"/>
<path fill-rule="evenodd" clip-rule="evenodd" d="M10.806 7.27603C10.8033 7.27452 10.8002 7.27405 10.7972 7.27471L10.795 7.27518C9.5877 7.53677 8.40573 7.90414 7.26283 8.37303C7.2593 8.37447 7.25576 8.3759 7.25222 8.37731L3.01624 22.5222C3.01555 22.5245 3.01545 22.5273 3.01611 22.5296C3.0167 22.5316 3.01781 22.5335 3.01933 22.535C4.79902 24.0819 7.29141 25.3175 10.2268 26.0374L10.2278 26.0352L11.7403 23.0352C11.989 22.542 12.5903 22.3438 13.0835 22.5924C13.5766 22.8411 13.7748 23.4424 13.5262 23.9355L12.018 26.9271C11.8201 27.3359 11.4873 27.6641 11.0755 27.8562C10.6621 28.0492 10.1946 28.093 9.75262 27.9804C6.57069 27.2004 3.76932 25.8387 1.70185 24.0398L1.69667 24.0352C1.4082 23.7807 1.19874 23.4489 1.09306 23.079C0.987403 22.7092 0.989919 22.3169 1.1003 21.9485C1.10028 21.9486 1.10033 21.9484 1.1003 21.9485L5.3362 7.80383C5.42073 7.51153 5.57207 7.24284 5.77833 7.01904C5.98239 6.79761 6.2346 6.62617 6.51541 6.5179C7.76327 6.00675 9.05359 5.60609 10.3715 5.32054C10.8539 5.21544 11.3582 5.29135 11.7883 5.53387C12.2191 5.77675 12.5453 6.16973 12.7048 6.63783L12.7078 6.6465L13.6952 9.63402C13.8686 10.1584 13.584 10.724 13.0596 10.8973C12.5352 11.0707 11.9696 10.7861 11.7963 10.2617L10.8114 7.28202C10.8103 7.2795 10.8084 7.27739 10.806 7.27603Z" fill="#858584"/>
</svg>
