<svg width="20" height="21" viewBox="0 0 20 21" fill="none" xmlns="http://www.w3.org/2000/svg">
<path fill-rule="evenodd" clip-rule="evenodd" d="M1.88281 5.09766C1.88281 4.75248 2.16263 4.47266 2.50781 4.47266H17.5078C17.853 4.47266 18.1328 4.75248 18.1328 5.09766V15.7227C18.1328 16.0542 18.0011 16.3721 17.7667 16.6065C17.5323 16.841 17.2143 16.9727 16.8828 16.9727H3.13281C2.80129 16.9727 2.48335 16.841 2.24893 16.6065C2.01451 16.3721 1.88281 16.0542 1.88281 15.7227V5.09766ZM3.13281 5.72266V15.7227H16.8828V5.72266H3.13281Z" fill="white"/>
<path fill-rule="evenodd" clip-rule="evenodd" d="M2.04709 4.67533C2.28034 4.42088 2.67569 4.40369 2.93014 4.63694L10.0078 11.1248L17.0855 4.63694C17.3399 4.40369 17.7353 4.42088 17.9685 4.67533C18.2018 4.92978 18.1846 5.32514 17.9301 5.55838L10.4301 12.4334C10.1912 12.6524 9.82444 12.6524 9.58549 12.4334L2.08549 5.55838C1.83104 5.32514 1.81385 4.92978 2.04709 4.67533Z" fill="white"/>
</svg>
