<svg width="70" height="22" viewBox="0 0 70 22" fill="none" xmlns="http://www.w3.org/2000/svg">
<path d="M18.9803 9.62343H18.2083V9.58366H9.58333V13.417H14.9994C14.2092 15.6485 12.086 17.2503 9.58333 17.2503C6.4079 17.2503 3.83333 14.6758 3.83333 11.5003C3.83333 8.32489 6.4079 5.75033 9.58333 5.75033C11.0491 5.75033 12.3826 6.30328 13.398 7.20651L16.1086 4.49587C14.397 2.90072 12.1076 1.91699 9.58333 1.91699C4.29094 1.91699 0 6.20793 0 11.5003C0 16.7927 4.29094 21.0837 9.58333 21.0837C14.8757 21.0837 19.1667 16.7927 19.1667 11.5003C19.1667 10.8578 19.1005 10.2305 18.9803 9.62343Z" fill="#FFC107"/>
<path d="M1.10547 7.03976L4.25407 9.34887C5.10603 7.23958 7.16932 5.75033 9.58384 5.75033C11.0496 5.75033 12.3831 6.30328 13.3985 7.20651L16.1091 4.49587C14.3976 2.90072 12.1081 1.91699 9.58384 1.91699C5.90288 1.91699 2.71068 3.99514 1.10547 7.03976Z" fill="#FF3D00"/>
<path d="M9.5843 21.0832C12.0597 21.0832 14.3089 20.1359 16.0094 18.5953L13.0434 16.0855C12.0489 16.8418 10.8337 17.2508 9.5843 17.2498C7.09167 17.2498 4.97519 15.6604 4.17786 13.4424L1.05273 15.8502C2.63878 18.9538 5.85974 21.0832 9.5843 21.0832Z" fill="#4CAF50"/>
<path d="M18.9809 9.62278H18.209V9.58301H9.58398V13.4163H15C14.622 14.4784 13.9412 15.4064 13.0417 16.0858L13.0431 16.0848L16.0091 18.5947C15.7993 18.7854 19.1673 16.2913 19.1673 11.4997C19.1673 10.8571 19.1012 10.2299 18.9809 9.62278Z" fill="#1976D2"/>
<path d="M61.159 4.30765C61.0843 4.30842 61.0101 4.29512 60.9408 4.26848C60.8715 4.24185 60.8083 4.20242 60.7549 4.15243C60.7015 4.10245 60.659 4.0429 60.6296 3.97717C60.6003 3.91145 60.5848 3.84084 60.584 3.76938C60.584 1.68672 62.3872 4.97915e-05 64.6075 4.97915e-05C64.6822 -0.000918946 64.7564 0.0122567 64.8259 0.0388192C64.8953 0.0653817 64.9585 0.104807 65.012 0.154829C65.0654 0.20485 65.108 0.264482 65.1372 0.330294C65.1665 0.396107 65.1819 0.466802 65.1825 0.538316C65.1825 2.62098 63.3808 4.30765 61.159 4.30765Z" fill="#0EC20A"/>
<path d="M61.1598 4.30765C61.0851 4.30842 61.0109 4.29512 60.9416 4.26848C60.8723 4.24185 60.8091 4.20242 60.7557 4.15243C60.7023 4.10245 60.6597 4.0429 60.6304 3.97717C60.6011 3.91145 60.5856 3.84084 60.5848 3.76938C60.5848 1.68672 62.388 4.97915e-05 64.6082 4.97915e-05C64.683 -0.000918946 64.7572 0.0122567 64.8266 0.0388192C64.8961 0.0653817 64.9593 0.104807 65.0127 0.154829C65.0662 0.20485 65.1087 0.264482 65.138 0.330294C65.1673 0.396107 65.1826 0.466802 65.1832 0.538316C65.1832 2.62098 63.3816 4.30765 61.1598 4.30765ZM69.5548 15.6465C69.7771 15.8019 69.8492 16.0865 69.7234 16.3182C67.6994 20.111 66.0848 22.0001 64.6098 22.0001C63.9228 22.0001 63.2482 21.7918 62.5904 21.387C62.1182 21.097 61.5715 20.9376 61.0106 20.9262C60.4496 20.9148 59.8963 21.0519 59.4118 21.3225C58.6144 21.7698 57.8554 22.0001 57.1348 22.0001C54.9651 22.0001 51.3848 15.7418 51.3848 12.3083C51.3848 8.64165 53.4379 5.84618 56.5598 5.84618C58.0287 5.84618 59.2968 6.04858 60.3624 6.46072C60.8132 6.63378 61.3238 6.62205 61.7639 6.42405C62.6287 6.03392 63.7695 5.84618 65.1832 5.84618C66.9113 5.84618 68.4186 6.65285 69.6698 8.21485C69.715 8.27118 69.748 8.33562 69.7668 8.40436C69.7855 8.4731 69.7896 8.54474 69.7789 8.61504C69.7682 8.68534 69.7428 8.75286 69.7043 8.81361C69.6658 8.87436 69.615 8.92711 69.5548 8.96872C68.1579 9.95138 67.4848 11.0529 67.4848 12.3083C67.4848 13.5623 68.1579 14.6653 69.5548 15.6465Z" fill="#0EC20A"/>
<path d="M69.5548 15.646C69.7771 15.8014 69.8492 16.086 69.7234 16.3177C67.6994 20.1105 66.0848 21.9996 64.6098 21.9996C63.9228 21.9996 63.2482 21.7913 62.5904 21.3865C62.1182 21.0966 61.5715 20.9371 61.0106 20.9257C60.4496 20.9143 59.8963 21.0515 59.4118 21.322C58.6144 21.7693 57.8554 21.9996 57.1348 21.9996C54.9651 21.9996 51.3848 15.7413 51.3848 12.3078C51.3848 8.64117 53.4379 5.8457 56.5598 5.8457C58.0287 5.8457 59.2968 6.0481 60.3624 6.46024C60.8132 6.6333 61.3238 6.62157 61.7639 6.42357C62.6287 6.03344 63.7695 5.8457 65.1832 5.8457C66.9113 5.8457 68.4186 6.65237 69.6698 8.21437C69.715 8.2707 69.748 8.33514 69.7668 8.40388C69.7855 8.47262 69.7896 8.54426 69.7789 8.61456C69.7682 8.68486 69.7428 8.75238 69.7043 8.81313C69.6658 8.87388 69.615 8.92663 69.5548 8.96824C68.1579 9.9509 67.4848 11.0524 67.4848 12.3078C67.4848 13.5618 68.1579 14.6648 69.5548 15.646Z" fill="#0EC20A"/>
</svg>
