<svg width="250" height="250" viewBox="0 0 250 250" fill="none" xmlns="http://www.w3.org/2000/svg">
<g clip-path="url(#clip0_40_520)">
<g filter="url(#filter0_f_40_520)">
<path d="M131.34 201.086C169.86 201.086 201.086 169.86 201.086 131.34C201.086 92.8203 169.86 61.5938 131.34 61.5938C92.8203 61.5938 61.5938 92.8203 61.5938 131.34C61.5938 169.86 92.8203 201.086 131.34 201.086Z" fill="url(#paint0_linear_40_520)"/>
</g>
<path fill-rule="evenodd" clip-rule="evenodd" d="M56.2487 82.0468C57.9914 82.0468 59.4042 80.634 59.4042 78.8912C59.4042 77.1486 57.9914 75.7358 56.2487 75.7358C54.506 75.7358 53.0932 77.1486 53.0932 78.8912C53.0932 80.634 54.506 82.0468 56.2487 82.0468ZM56.2487 84.4134C59.2985 84.4134 61.7709 81.9411 61.7709 78.8912C61.7709 75.8415 59.2985 73.3691 56.2487 73.3691C53.1989 73.3691 50.7266 75.8415 50.7266 78.8912C50.7266 81.9411 53.1989 84.4134 56.2487 84.4134Z" fill="white"/>
<path fill-rule="evenodd" clip-rule="evenodd" d="M46.2838 179.873C48.0266 179.873 49.4393 178.46 49.4393 176.717C49.4393 174.974 48.0266 173.562 46.2838 173.562C44.5412 173.562 43.1284 174.974 43.1284 176.717C43.1284 178.46 44.5412 179.873 46.2838 179.873ZM46.2838 182.24C49.3336 182.24 51.806 179.767 51.806 176.717C51.806 173.667 49.3336 171.195 46.2838 171.195C43.2341 171.195 40.7617 173.667 40.7617 176.717C40.7617 179.767 43.2341 182.24 46.2838 182.24Z" fill="white"/>
<path fill-rule="evenodd" clip-rule="evenodd" d="M193.022 46.7206C194.764 46.7206 196.178 45.3078 196.178 43.5651C196.178 41.8224 194.764 40.4096 193.022 40.4096C191.279 40.4096 189.867 41.8224 189.867 43.5651C189.867 45.3078 191.279 46.7206 193.022 46.7206ZM193.022 49.0873C196.072 49.0873 198.544 46.6149 198.544 43.5651C198.544 40.5153 196.072 38.043 193.022 38.043C189.972 38.043 187.5 40.5153 187.5 43.5651C187.5 46.6149 189.972 49.0873 193.022 49.0873Z" fill="white"/>
<path d="M59.23 38.2153C59.4621 37.2538 60.8298 37.2538 61.0618 38.2153L61.843 41.4513C61.926 41.7949 62.1942 42.0632 62.5378 42.1462L65.7739 42.9273C66.7354 43.1594 66.7354 44.527 65.7739 44.7591L62.5378 45.5403C62.1942 45.6232 61.926 45.8914 61.843 46.2351L61.0618 49.4712C60.8298 50.4327 59.4621 50.4327 59.23 49.4712L58.4489 46.2351C58.3659 45.8914 58.0976 45.6232 57.7541 45.5403L54.518 44.7591C53.5565 44.527 53.5565 43.1594 54.518 42.9273L57.7541 42.1462C58.0976 42.0632 58.3659 41.7949 58.4489 41.4513L59.23 38.2153Z" fill="white"/>
<path d="M204.975 71.1869C205.229 70.133 206.728 70.133 206.983 71.1869L207.84 74.734C207.93 75.1106 208.224 75.4047 208.6 75.4957L212.147 76.3519C213.202 76.6063 213.202 78.1054 212.147 78.3598L208.6 79.2161C208.224 79.307 207.93 79.601 207.84 79.9777L206.983 83.5249C206.728 84.5788 205.229 84.5788 204.975 83.5249L204.118 79.9777C204.028 79.601 203.734 79.307 203.357 79.2161L199.81 78.3598C198.756 78.1054 198.756 76.6063 199.81 76.3519L203.357 75.4957C203.734 75.4047 204.028 75.1106 204.118 74.734L204.975 71.1869Z" fill="url(#paint1_linear_40_520)"/>
<path d="M49.8469 200.396C51.0461 200.204 52.0036 201.381 51.5702 202.516L48.6454 210.175C48.2121 211.31 46.713 211.55 45.9471 210.607L40.7769 204.244C40.0108 203.302 40.5525 201.884 41.7518 201.692L49.8469 200.396Z" fill="url(#paint2_linear_40_520)"/>
<path d="M191.105 182.978C190.805 181.8 191.891 180.74 193.061 181.068L200.954 183.287C202.122 183.615 202.498 185.086 201.629 185.934L195.762 191.661C194.892 192.509 193.431 192.098 193.13 190.921L191.105 182.978Z" fill="url(#paint3_linear_40_520)"/>
<g filter="url(#filter1_f_40_520)">
<path d="M180.276 205.132C180.276 210.721 153.765 215.251 121.062 215.251C88.3587 215.251 61.8477 210.721 61.8477 205.132C61.8477 199.544 88.3587 195.014 121.062 195.014C153.765 195.014 180.276 199.544 180.276 205.132Z" fill="url(#paint4_radial_40_520)"/>
</g>
<g filter="url(#filter2_i_40_520)">
<path d="M122.213 59.8649L83.6459 66.6653C80.5475 67.2117 78.4787 70.1663 79.025 73.2647L88.7452 128.391C89.2915 131.489 92.2462 133.558 95.3446 133.011L133.912 126.211C137.011 125.665 139.079 122.71 138.533 119.612L128.813 64.4858C128.266 61.3874 125.311 59.3185 122.213 59.8649Z" fill="url(#paint5_linear_40_520)"/>
</g>
<path d="M122.774 88.2023L92.8144 93.4851C91.8055 93.663 91.1318 94.6251 91.3097 95.6339L91.3108 95.6398C91.4887 96.6487 92.4508 97.3223 93.4596 97.1444L123.42 91.8616C124.428 91.6837 125.102 90.7217 124.925 89.7128L124.924 89.7069C124.745 88.6981 123.783 88.0244 122.774 88.2023Z" fill="url(#paint6_linear_40_520)"/>
<path d="M127.33 113.947L97.6275 119.184C96.6274 119.361 95.9562 120.296 96.1285 121.273L96.1295 121.279C96.3019 122.257 97.2524 122.906 98.2526 122.73L127.955 117.492C128.956 117.316 129.626 116.381 129.454 115.403L129.453 115.397C129.281 114.42 128.33 113.77 127.33 113.947Z" fill="url(#paint7_linear_40_520)"/>
<path d="M124.955 100.476L95.2525 105.713C94.2523 105.89 93.5812 106.825 93.7536 107.802L93.7546 107.809C93.9268 108.786 94.8774 109.435 95.8776 109.259L125.58 104.021C126.58 103.845 127.252 102.91 127.079 101.932L127.079 101.927C126.906 100.949 125.955 100.3 124.955 100.476Z" fill="url(#paint8_linear_40_520)"/>
<path d="M100.405 72.4884L91.6503 74.0321C89.7109 74.3741 88.4159 76.2235 88.7579 78.1628L89.1863 80.5925C89.5283 82.5318 91.3776 83.8268 93.317 83.4848L102.072 81.9411C104.011 81.5991 105.307 79.7498 104.964 77.8104L104.536 75.3807C104.194 73.4413 102.345 72.1464 100.405 72.4884Z" fill="#05121B"/>
<g filter="url(#filter3_i_40_520)">
<path d="M168.176 75.0664H117.149C114.771 75.0664 112.844 76.994 112.844 79.3718V103.356C112.844 105.734 114.771 107.662 117.149 107.662H168.176C170.554 107.662 172.481 105.734 172.481 103.356V79.3718C172.481 76.994 170.554 75.0664 168.176 75.0664Z" fill="url(#paint9_linear_40_520)"/>
</g>
<path d="M125.438 96.3097C128.171 96.3097 130.388 94.0936 130.388 91.3599C130.388 88.6262 128.171 86.4102 125.438 86.4102C122.704 86.4102 120.488 88.6262 120.488 91.3599C120.488 94.0936 122.704 96.3097 125.438 96.3097Z" fill="white"/>
<path d="M143.13 96.3097C145.864 96.3097 148.079 94.0936 148.079 91.3599C148.079 88.6262 145.864 86.4102 143.13 86.4102C140.396 86.4102 138.18 88.6262 138.18 91.3599C138.18 94.0936 140.396 96.3097 143.13 96.3097Z" fill="white"/>
<path d="M160.817 96.3097C163.551 96.3097 165.767 94.0936 165.767 91.3599C165.767 88.6262 163.551 86.4102 160.817 86.4102C158.084 86.4102 155.867 88.6262 155.867 91.3599C155.867 94.0936 158.084 96.3097 160.817 96.3097Z" fill="white"/>
<path fill-rule="evenodd" clip-rule="evenodd" d="M116.14 161.244C116.567 158.817 118.881 157.198 121.307 157.625L146.796 162.12C150.278 162.734 153.426 164.351 155.657 166.688C157.887 169.023 159.398 172.342 158.75 176.018C158.102 179.694 155.547 182.297 152.653 183.73C149.758 185.164 146.246 185.61 142.762 184.996L82.1986 174.316C79.7725 173.889 78.1524 171.574 78.5802 169.149C79.008 166.722 81.3216 165.102 83.7479 165.53L144.312 176.209C146.118 176.527 147.673 176.241 148.694 175.736C149.716 175.229 149.926 174.688 149.964 174.469C150.002 174.252 149.991 173.673 149.205 172.849C148.419 172.025 147.055 171.225 145.247 170.906L119.653 165.503C117.228 165.075 115.711 163.669 116.14 161.244Z" fill="url(#paint10_linear_40_520)"/>
<path fill-rule="evenodd" clip-rule="evenodd" d="M165.371 115.831C166.329 113.772 168.552 112.614 170.788 113.008L190.77 116.532C193.499 117.013 195.321 119.614 194.84 122.343C194.358 125.071 191.757 126.893 189.028 126.412L172.839 123.557L163.276 144.085C162.106 146.597 159.122 147.684 156.61 146.514C154.099 145.344 153.011 142.36 154.182 139.849L165.371 115.831Z" fill="url(#paint11_linear_40_520)"/>
<path d="M94.1502 192.088C100.061 193.13 105.698 189.183 106.74 183.272C107.782 177.361 103.835 171.725 97.9245 170.683C92.0137 169.64 86.3771 173.588 85.3349 179.498C84.2927 185.409 88.2394 191.045 94.1502 192.088Z" fill="url(#paint12_linear_40_520)"/>
<path d="M160.762 124.901L87.0088 111.896C81.4802 110.921 76.5697 114.891 76.9548 120.016L77.8758 149.93C78.1553 153.633 81.1772 156.757 85.17 157.461L149.459 173.136L167.448 135.987C171.593 128.463 166.304 125.878 160.762 124.901Z" fill="url(#paint13_linear_40_520)"/>
<path d="M94.79 186.726C97.7595 187.25 100.591 185.267 101.115 182.298C101.638 179.328 99.6557 176.496 96.6861 175.973C93.7165 175.449 90.8849 177.432 90.3612 180.402C89.8376 183.371 91.8204 186.203 94.79 186.726Z" fill="url(#paint14_linear_40_520)"/>
<mask id="mask0_40_520" style="mask-type:alpha" maskUnits="userSpaceOnUse" x="76" y="111" width="93" height="63">
<path d="M160.762 124.901L87.0088 111.896C81.4802 110.921 76.5697 114.891 76.9548 120.016L77.8758 149.93C78.1553 153.633 81.1772 156.757 85.1701 157.461L149.459 173.136L167.448 135.987C169.565 131.288 166.304 125.878 160.762 124.901Z" fill="url(#paint15_linear_40_520)"/>
</mask>
<g mask="url(#mask0_40_520)">
<path d="M125.077 144.626C125.397 142.932 127.03 141.814 128.725 142.127C130.419 142.44 131.533 144.067 131.213 145.76L126.991 168.09C126.672 169.783 125.038 170.902 123.345 170.589C121.65 170.276 120.536 168.649 120.856 166.956L125.077 144.626Z" fill="#05121B"/>
<path d="M180.173 130.101C181.588 130.347 182.54 131.694 182.301 133.11L182.127 134.135C181.887 135.551 180.546 136.499 179.131 136.254L76.0077 118.343C74.5931 118.097 73.6408 116.75 73.8807 115.335L74.0546 114.31C74.2945 112.894 75.6359 111.946 77.0506 112.191L180.173 130.101Z" fill="#05121B"/>
<path d="M142.433 147.762C142.753 146.069 144.386 144.95 146.08 145.264C147.774 145.577 148.889 147.204 148.568 148.897L144.347 171.227C144.027 172.92 142.394 174.039 140.699 173.726C139.005 173.413 137.891 171.786 138.211 170.093L142.433 147.762Z" fill="#05121B"/>
<path d="M107.726 141.489C108.046 139.796 109.679 138.677 111.373 138.99C113.067 139.303 114.181 140.93 113.861 142.623L109.64 164.954C109.32 166.647 107.687 167.765 105.992 167.453C104.298 167.139 103.184 165.512 103.504 163.82L107.726 141.489Z" fill="#05121B"/>
<path d="M90.1707 138.393C90.4909 136.7 92.1238 135.582 93.8181 135.894C95.5124 136.208 96.6265 137.834 96.3064 139.527L92.0851 161.858C91.765 163.551 90.1321 164.67 88.4377 164.357C86.7434 164.044 85.6293 162.417 85.9494 160.724L90.1707 138.393Z" fill="#05121B"/>
<path d="M74.9269 112.21C75.2511 110.371 77.0041 109.144 78.8423 109.468L168.969 125.359C170.807 125.684 172.034 127.437 171.71 129.275C171.385 131.114 169.633 132.341 167.795 132.017L77.6686 116.125C75.8302 115.801 74.6028 114.048 74.9269 112.21Z" fill="url(#paint16_linear_40_520)"/>
</g>
</g>
<defs>
<filter id="filter0_f_40_520" x="7.59375" y="7.59375" width="247.492" height="247.492" filterUnits="userSpaceOnUse" color-interpolation-filters="sRGB">
<feFlood flood-opacity="0" result="BackgroundImageFix"/>
<feBlend mode="normal" in="SourceGraphic" in2="BackgroundImageFix" result="shape"/>
<feGaussianBlur stdDeviation="27" result="effect1_foregroundBlur_40_520"/>
</filter>
<filter id="filter1_f_40_520" x="41.1603" y="174.326" width="159.804" height="61.6111" filterUnits="userSpaceOnUse" color-interpolation-filters="sRGB">
<feFlood flood-opacity="0" result="BackgroundImageFix"/>
<feBlend mode="normal" in="SourceGraphic" in2="BackgroundImageFix" result="shape"/>
<feGaussianBlur stdDeviation="10.3437" result="effect1_foregroundBlur_40_520"/>
</filter>
<filter id="filter2_i_40_520" x="78.9375" y="59.7773" width="62.0681" height="78.8862" filterUnits="userSpaceOnUse" color-interpolation-filters="sRGB">
<feFlood flood-opacity="0" result="BackgroundImageFix"/>
<feBlend mode="normal" in="SourceGraphic" in2="BackgroundImageFix" result="shape"/>
<feColorMatrix in="SourceAlpha" type="matrix" values="0 0 0 0 0 0 0 0 0 0 0 0 0 0 0 0 0 0 127 0" result="hardAlpha"/>
<feOffset dx="2.38455" dy="5.56394"/>
<feGaussianBlur stdDeviation="5.96137"/>
<feComposite in2="hardAlpha" operator="arithmetic" k2="-1" k3="1"/>
<feColorMatrix type="matrix" values="0 0 0 0 0.104618 0 0 0 0 0.465612 0 0 0 0 0.545833 0 0 0 0.15 0"/>
<feBlend mode="normal" in2="shape" result="effect1_innerShadow_40_520"/>
</filter>
<filter id="filter3_i_40_520" x="112.844" y="75.0664" width="65.2626" height="36.3463" filterUnits="userSpaceOnUse" color-interpolation-filters="sRGB">
<feFlood flood-opacity="0" result="BackgroundImageFix"/>
<feBlend mode="normal" in="SourceGraphic" in2="BackgroundImageFix" result="shape"/>
<feColorMatrix in="SourceAlpha" type="matrix" values="0 0 0 0 0 0 0 0 0 0 0 0 0 0 0 0 0 0 127 0" result="hardAlpha"/>
<feOffset dx="5.62585" dy="3.75056"/>
<feGaussianBlur stdDeviation="6.09467"/>
<feComposite in2="hardAlpha" operator="arithmetic" k2="-1" k3="1"/>
<feColorMatrix type="matrix" values="0 0 0 0 0.104618 0 0 0 0 0.465612 0 0 0 0 0.545833 0 0 0 0.09 0"/>
<feBlend mode="normal" in2="shape" result="effect1_innerShadow_40_520"/>
</filter>
<linearGradient id="paint0_linear_40_520" x1="161.231" y1="187.801" x2="114.714" y2="182.499" gradientUnits="userSpaceOnUse">
<stop stop-color="#A259FF" stop-opacity="0"/>
<stop offset="1" stop-color="#5367AE"/>
</linearGradient>
<linearGradient id="paint1_linear_40_520" x1="208.955" y1="73.4895" x2="222.297" y2="83.9693" gradientUnits="userSpaceOnUse">
<stop stop-color="#A259FF"/>
<stop offset="1" stop-color="#377DF7"/>
</linearGradient>
<linearGradient id="paint2_linear_40_520" x1="51.0836" y1="204.28" x2="50.6379" y2="217.555" gradientUnits="userSpaceOnUse">
<stop stop-color="#59C3FF"/>
<stop offset="1" stop-color="#377DF7"/>
</linearGradient>
<linearGradient id="paint3_linear_40_520" x1="194.861" y1="181.393" x2="208.122" y2="180.633" gradientUnits="userSpaceOnUse">
<stop stop-color="#71519A"/>
<stop offset="1" stop-color="#377DF7"/>
</linearGradient>
<radialGradient id="paint4_radial_40_520" cx="0" cy="0" r="1" gradientUnits="userSpaceOnUse" gradientTransform="translate(121.062 205.132) rotate(90) scale(10.1188 59.2142)">
<stop stop-color="#2B2B2B"/>
<stop offset="1" stop-color="#2B2B2B" stop-opacity="0"/>
</radialGradient>
<linearGradient id="paint5_linear_40_520" x1="86.0966" y1="66.2332" x2="136.256" y2="64.6874" gradientUnits="userSpaceOnUse">
<stop stop-color="#A259FF"/>
<stop offset="1" stop-color="#3B3B3B"/>
</linearGradient>
<linearGradient id="paint6_linear_40_520" x1="118.272" y1="91.702" x2="114.98" y2="81.9423" gradientUnits="userSpaceOnUse">
<stop stop-color="#A259FF"/>
<stop offset="0.666667" stop-color="white"/>
</linearGradient>
<linearGradient id="paint7_linear_40_520" x1="122.856" y1="117.357" x2="119.697" y2="107.886" gradientUnits="userSpaceOnUse">
<stop stop-color="#A259FF"/>
<stop offset="0.666667" stop-color="white"/>
</linearGradient>
<linearGradient id="paint8_linear_40_520" x1="120.481" y1="103.886" x2="117.321" y2="94.4155" gradientUnits="userSpaceOnUse">
<stop stop-color="#A259FF"/>
<stop offset="0.666667" stop-color="white"/>
</linearGradient>
<linearGradient id="paint9_linear_40_520" x1="112.844" y1="114.984" x2="149.542" y2="59.9061" gradientUnits="userSpaceOnUse">
<stop stop-color="#A259FF"/>
<stop offset="1" stop-color="#FF6250"/>
</linearGradient>
<linearGradient id="paint10_linear_40_520" x1="141.926" y1="178.175" x2="129.345" y2="119.126" gradientUnits="userSpaceOnUse">
<stop stop-color="#A259FF"/>
<stop offset="0.666667" stop-color="white"/>
</linearGradient>
<linearGradient id="paint11_linear_40_520" x1="183.859" y1="123.353" x2="212.9" y2="157.155" gradientUnits="userSpaceOnUse">
<stop stop-color="#A259FF"/>
<stop offset="1" stop-color="#377DF7"/>
</linearGradient>
<linearGradient id="paint12_linear_40_520" x1="101.595" y1="187.156" x2="76.772" y2="161.794" gradientUnits="userSpaceOnUse">
<stop stop-color="#A259FF"/>
<stop offset="0.666667" stop-color="white"/>
</linearGradient>
<linearGradient id="paint13_linear_40_520" x1="145.223" y1="158.18" x2="95.3263" y2="58.7037" gradientUnits="userSpaceOnUse">
<stop stop-color="#A259FF"/>
<stop offset="0.666667" stop-color="white"/>
</linearGradient>
<linearGradient id="paint14_linear_40_520" x1="89.5646" y1="183.031" x2="105.057" y2="186.017" gradientUnits="userSpaceOnUse">
<stop stop-color="white"/>
<stop offset="1" stop-color="#BCF3FF"/>
</linearGradient>
<linearGradient id="paint15_linear_40_520" x1="76.3066" y1="121.766" x2="167.65" y2="139" gradientUnits="userSpaceOnUse">
<stop stop-color="#AFF1FF"/>
<stop offset="1" stop-color="#65C8DE"/>
</linearGradient>
<linearGradient id="paint16_linear_40_520" x1="151.899" y1="127.272" x2="153.385" y2="108.464" gradientUnits="userSpaceOnUse">
<stop stop-color="#A259FF"/>
<stop offset="0.666667" stop-color="white"/>
</linearGradient>
<clipPath id="clip0_40_520">
<rect width="250" height="250" fill="white"/>
</clipPath>
</defs>
</svg>
