<svg width="250" height="250" viewBox="0 0 250 250" fill="none" xmlns="http://www.w3.org/2000/svg">
<g clip-path="url(#clip0_40_510)">
<g filter="url(#filter0_f_40_510)">
<path d="M125.001 201.086C167.023 201.086 201.088 167.021 201.088 124.999C201.088 82.9774 167.023 48.9121 125.001 48.9121C82.9794 48.9121 48.9141 82.9774 48.9141 124.999C48.9141 167.021 82.9794 201.086 125.001 201.086Z" fill="url(#paint0_linear_40_510)"/>
</g>
<path fill-rule="evenodd" clip-rule="evenodd" d="M75.2682 46.7206C77.0109 46.7206 78.4237 45.3078 78.4237 43.5651C78.4237 41.8224 77.0109 40.4096 75.2682 40.4096C73.5255 40.4096 72.1128 41.8224 72.1128 43.5651C72.1128 45.3078 73.5255 46.7206 75.2682 46.7206ZM75.2682 49.0873C78.318 49.0873 80.7904 46.6149 80.7904 43.5651C80.7904 40.5153 78.318 38.043 75.2682 38.043C72.2185 38.043 69.7461 40.5153 69.7461 43.5651C69.7461 46.6149 72.2185 49.0873 75.2682 49.0873Z" fill="white"/>
<path fill-rule="evenodd" clip-rule="evenodd" d="M46.2838 179.873C48.0266 179.873 49.4393 178.46 49.4393 176.717C49.4393 174.974 48.0266 173.562 46.2838 173.562C44.5412 173.562 43.1284 174.974 43.1284 176.717C43.1284 178.46 44.5412 179.873 46.2838 179.873ZM46.2838 182.24C49.3336 182.24 51.806 179.767 51.806 176.717C51.806 173.667 49.3336 171.195 46.2838 171.195C43.2341 171.195 40.7617 173.667 40.7617 176.717C40.7617 179.767 43.2341 182.24 46.2838 182.24Z" fill="white"/>
<path fill-rule="evenodd" clip-rule="evenodd" d="M204.795 91.1053C206.538 91.1053 207.951 89.6926 207.951 87.9498C207.951 86.2072 206.538 84.7944 204.795 84.7944C203.052 84.7944 201.64 86.2072 201.64 87.9498C201.64 89.6926 203.052 91.1053 204.795 91.1053ZM204.795 93.4721C207.845 93.4721 210.318 90.9993 210.318 87.9498C210.318 84.9001 207.845 82.4277 204.795 82.4277C201.745 82.4277 199.273 84.9001 199.273 87.9498C199.273 90.9993 201.745 93.4721 204.795 93.4721Z" fill="white"/>
<path d="M39.3043 47.2719C39.5363 46.3104 40.904 46.3104 41.1361 47.2719L41.9172 50.508C42.0002 50.8515 42.2685 51.1198 42.6121 51.2028L45.8481 51.984C46.8096 52.216 46.8096 53.5837 45.8481 53.8158L42.6121 54.5969C42.2685 54.6799 42.0002 54.9481 41.9172 55.2917L41.1361 58.5278C40.904 59.4893 39.5363 59.4893 39.3043 58.5278L38.5231 55.2917C38.4401 54.9481 38.1719 54.6799 37.8283 54.5969L34.5922 53.8158C33.6307 53.5837 33.6307 52.216 34.5922 51.984L37.8283 51.2028C38.1719 51.1198 38.4401 50.8515 38.5231 50.508L39.3043 47.2719Z" fill="white"/>
<path d="M207.694 46.7318C207.948 45.6779 209.447 45.6779 209.701 46.7318L210.558 50.2789C210.649 50.6556 210.943 50.9497 211.319 51.0406L214.866 51.8969C215.921 52.1512 215.921 53.6503 214.866 53.9047L211.319 54.761C210.943 54.8519 210.649 55.146 210.558 55.5226L209.701 59.0698C209.447 60.1237 207.948 60.1237 207.694 59.0698L206.837 55.5226C206.747 55.146 206.452 54.8519 206.075 54.761L202.528 53.9047C201.475 53.6503 201.475 52.1512 202.528 51.8969L206.075 51.0406C206.452 50.9497 206.747 50.6556 206.837 50.2789L207.694 46.7318Z" fill="url(#paint1_linear_40_510)"/>
<path d="M49.8469 200.396C51.0461 200.204 52.0036 201.381 51.5702 202.516L48.6454 210.175C48.2121 211.31 46.713 211.55 45.9471 210.607L40.7769 204.244C40.0108 203.302 40.5525 201.884 41.7518 201.692L49.8469 200.396Z" fill="url(#paint2_linear_40_510)"/>
<path d="M193.82 179.355C193.52 178.177 194.606 177.117 195.776 177.445L203.669 179.663C204.837 179.992 205.213 181.463 204.344 182.311L198.477 188.038C197.607 188.886 196.146 188.475 195.845 187.298L193.82 179.355Z" fill="url(#paint3_linear_40_510)"/>
<path d="M165.317 139.369L94.9846 113.77C89.5932 111.808 83.632 114.588 81.6698 119.979L65.0668 165.595C63.1046 170.986 65.8843 176.947 71.2755 178.909L141.609 204.509C147 206.471 152.961 203.691 154.923 198.3L171.526 152.684C173.488 147.292 170.708 141.331 165.317 139.369Z" fill="url(#paint4_linear_40_510)"/>
<path d="M162.462 153.499L183.238 123.572C186.51 118.859 185.342 112.386 180.629 109.115L150.703 88.3382C145.99 85.0663 139.517 86.2345 136.245 90.9471L115.469 120.874C112.197 125.587 113.365 132.059 118.078 135.331L148.004 156.107C152.717 159.379 159.19 158.211 162.462 153.499Z" fill="url(#paint5_linear_40_510)"/>
<path d="M138.807 129.682C137.536 131.434 135.094 131.821 133.342 130.55C131.591 129.279 131.204 126.837 132.475 125.085C133.746 123.333 136.188 122.946 137.94 124.217C139.691 125.489 140.079 127.931 138.807 129.682Z" fill="url(#paint6_linear_40_510)"/>
<path d="M150.368 113.728L147.951 111.975L136.406 127.894L138.824 129.648L150.368 113.728Z" fill="url(#paint7_linear_40_510)"/>
<path d="M152.393 132.506C151.122 134.258 148.68 134.646 146.929 133.374C145.177 132.103 144.789 129.661 146.061 127.909C147.332 126.157 149.774 125.77 151.526 127.041C153.277 128.313 153.665 130.755 152.393 132.506Z" fill="url(#paint8_linear_40_510)"/>
<path d="M163.976 116.544L161.558 114.791L150.016 130.712L152.434 132.465L163.976 116.544Z" fill="url(#paint9_linear_40_510)"/>
<path d="M163.945 116.584L146.414 114.102L147.954 111.971L165.482 114.461L163.945 116.584Z" fill="url(#paint10_linear_40_510)"/>
<path d="M161.036 120.596L143.504 118.114L145.044 115.982L162.58 118.475L161.036 120.596Z" fill="url(#paint11_linear_40_510)"/>
<path d="M147.075 87.2561L140.991 59.0678C139.781 53.4597 134.252 49.8947 128.645 51.1052L91.7842 59.0611C86.1764 60.2716 82.6115 65.7991 83.822 71.4072L89.9062 99.5955C91.1166 105.203 96.6438 108.768 102.252 107.558L139.112 99.6018C144.721 98.3917 148.285 92.8645 147.075 87.2561Z" fill="url(#paint12_linear_40_510)"/>
<path d="M146.598 84.3574L125.935 67.7676L117.947 83.516L109.532 78.6648L97.8982 94.8596L89.1719 96.74L89.5874 98.6929C90.9897 105.176 97.3783 109.3 103.861 107.897L137.799 100.573C144.281 99.1712 148.405 92.7826 147.002 86.3001L146.588 84.3574H146.598Z" fill="url(#paint13_linear_40_510)"/>
<path opacity="0.9" d="M97.6873 76.7851C100.918 76.7019 103.006 73.4608 101.749 70.4898C101.042 68.8278 99.3494 67.737 97.5414 67.7785C94.3114 67.8616 92.2226 71.1028 93.4799 74.0738C94.1864 75.7358 95.8793 76.8266 97.6873 76.7851Z" fill="white"/>
<path d="M153.835 196.629C152.397 202.673 146.012 206.112 140.175 203.987L69.9735 178.435C65.0175 176.632 62.1998 171.401 63.4203 166.27L73.3895 124.364C74.8271 118.32 81.2115 114.881 87.0486 117.006L157.251 142.558C162.206 144.361 165.024 149.592 163.804 154.723L153.835 196.629Z" fill="url(#paint14_linear_40_510)"/>
</g>
<defs>
<filter id="filter0_f_40_510" x="-5.08594" y="-5.08789" width="260.176" height="260.174" filterUnits="userSpaceOnUse" color-interpolation-filters="sRGB">
<feFlood flood-opacity="0" result="BackgroundImageFix"/>
<feBlend mode="normal" in="SourceGraphic" in2="BackgroundImageFix" result="shape"/>
<feGaussianBlur stdDeviation="27" result="effect1_foregroundBlur_40_510"/>
</filter>
<linearGradient id="paint0_linear_40_510" x1="212.863" y1="137.68" x2="156.246" y2="235.274" gradientUnits="userSpaceOnUse">
<stop stop-color="#A259FF" stop-opacity="0"/>
<stop offset="1" stop-color="#FF6250"/>
</linearGradient>
<linearGradient id="paint1_linear_40_510" x1="211.673" y1="49.0345" x2="225.016" y2="59.5142" gradientUnits="userSpaceOnUse">
<stop stop-color="#A259FF"/>
<stop offset="1" stop-color="#377DF7"/>
</linearGradient>
<linearGradient id="paint2_linear_40_510" x1="51.0836" y1="204.28" x2="50.6379" y2="217.555" gradientUnits="userSpaceOnUse">
<stop stop-color="#59C3FF"/>
<stop offset="1" stop-color="#377DF7"/>
</linearGradient>
<linearGradient id="paint3_linear_40_510" x1="197.576" y1="177.77" x2="210.837" y2="177.009" gradientUnits="userSpaceOnUse">
<stop stop-color="#71519A"/>
<stop offset="1" stop-color="#377DF7"/>
</linearGradient>
<linearGradient id="paint4_linear_40_510" x1="144.093" y1="148.037" x2="182.893" y2="240.768" gradientUnits="userSpaceOnUse">
<stop stop-color="#A259FF"/>
<stop offset="0.416667" stop-color="#A259FF" stop-opacity="0"/>
</linearGradient>
<linearGradient id="paint5_linear_40_510" x1="155.432" y1="141.332" x2="88.7777" y2="161.815" gradientUnits="userSpaceOnUse">
<stop stop-color="#FF7262"/>
<stop offset="0.317708" stop-color="#A259FF"/>
</linearGradient>
<linearGradient id="paint6_linear_40_510" x1="144.952" y1="111.553" x2="152.34" y2="127.114" gradientUnits="userSpaceOnUse">
<stop stop-color="#3B3B3B"/>
<stop offset="1" stop-color="#A259FF"/>
</linearGradient>
<linearGradient id="paint7_linear_40_510" x1="171.049" y1="84.8342" x2="177.563" y2="91.2282" gradientUnits="userSpaceOnUse">
<stop stop-color="#3B3B3B"/>
<stop offset="1" stop-color="#A259FF"/>
</linearGradient>
<linearGradient id="paint8_linear_40_510" x1="158.538" y1="114.378" x2="165.925" y2="129.938" gradientUnits="userSpaceOnUse">
<stop stop-color="#3B3B3B"/>
<stop offset="1" stop-color="#A259FF"/>
</linearGradient>
<linearGradient id="paint9_linear_40_510" x1="184.652" y1="87.646" x2="191.167" y2="94.0392" gradientUnits="userSpaceOnUse">
<stop stop-color="#3B3B3B"/>
<stop offset="1" stop-color="#A259FF"/>
</linearGradient>
<linearGradient id="paint10_linear_40_510" x1="168.051" y1="103.502" x2="167.785" y2="121.807" gradientUnits="userSpaceOnUse">
<stop stop-color="#3B3B3B"/>
<stop offset="1" stop-color="#A259FF"/>
</linearGradient>
<linearGradient id="paint11_linear_40_510" x1="165.148" y1="107.517" x2="164.88" y2="125.821" gradientUnits="userSpaceOnUse">
<stop stop-color="#3B3B3B"/>
<stop offset="1" stop-color="#A259FF"/>
</linearGradient>
<linearGradient id="paint12_linear_40_510" x1="123.703" y1="58.7822" x2="135.465" y2="97.2286" gradientUnits="userSpaceOnUse">
<stop stop-color="#4160B0"/>
<stop offset="1" stop-color="#A259FF"/>
</linearGradient>
<linearGradient id="paint13_linear_40_510" x1="115.395" y1="123.188" x2="102.617" y2="75.9924" gradientUnits="userSpaceOnUse">
<stop stop-color="#A259FF"/>
<stop offset="1" stop-color="white"/>
</linearGradient>
<linearGradient id="paint14_linear_40_510" x1="137.016" y1="183.7" x2="88.1557" y2="59.3849" gradientUnits="userSpaceOnUse">
<stop stop-color="#A259FF"/>
<stop offset="0.666667" stop-color="white"/>
</linearGradient>
<clipPath id="clip0_40_510">
<rect width="250" height="250" fill="white"/>
</clipPath>
</defs>
</svg>
