<svg width="250" height="250" viewBox="0 0 250 250" fill="none" xmlns="http://www.w3.org/2000/svg">
<g clip-path="url(#clip0_40_505)">
<g filter="url(#filter0_f_40_505)">
<path d="M125.001 201.086C167.023 201.086 201.088 167.021 201.088 124.999C201.088 82.9774 167.023 48.9121 125.001 48.9121C82.9794 48.9121 48.9141 82.9774 48.9141 124.999C48.9141 167.021 82.9794 201.086 125.001 201.086Z" fill="url(#paint0_linear_40_505)"/>
</g>
<path fill-rule="evenodd" clip-rule="evenodd" d="M117.842 40.3808C119.585 40.3808 120.998 38.968 120.998 37.2252C120.998 35.4826 119.585 34.0698 117.842 34.0698C116.099 34.0698 114.687 35.4826 114.687 37.2252C114.687 38.968 116.099 40.3808 117.842 40.3808ZM117.842 42.7474C120.892 42.7474 123.365 40.275 123.365 37.2252C123.365 34.1755 120.892 31.7031 117.842 31.7031C114.792 31.7031 112.32 34.1755 112.32 37.2252C112.32 40.275 114.792 42.7474 117.842 42.7474Z" fill="white"/>
<path fill-rule="evenodd" clip-rule="evenodd" d="M42.6588 185.308C44.4016 185.308 45.8143 183.895 45.8143 182.153C45.8143 180.41 44.4016 178.998 42.6588 178.998C40.9162 178.998 39.5034 180.41 39.5034 182.153C39.5034 183.895 40.9162 185.308 42.6588 185.308ZM42.6588 187.675C45.7086 187.675 48.181 185.202 48.181 182.153C48.181 179.103 45.7086 176.631 42.6588 176.631C39.6091 176.631 37.1367 179.103 37.1367 182.153C37.1367 185.202 39.6091 187.675 42.6588 187.675Z" fill="white"/>
<path fill-rule="evenodd" clip-rule="evenodd" d="M215.67 178.062C217.413 178.062 218.826 176.649 218.826 174.906C218.826 173.164 217.413 171.752 215.67 171.752C213.927 171.752 212.515 173.164 212.515 174.906C212.515 176.649 213.927 178.062 215.67 178.062ZM215.67 180.429C218.72 180.429 221.193 177.956 221.193 174.906C221.193 171.857 218.72 169.385 215.67 169.385C212.62 169.385 210.148 171.857 210.148 174.906C210.148 177.956 212.62 180.429 215.67 180.429Z" fill="white"/>
<path d="M66.4761 54.518C66.7082 53.5565 68.0759 53.5565 68.3079 54.518L69.0891 57.7541C69.1721 58.0976 69.4404 58.3659 69.7839 58.4489L73.02 59.23C73.9815 59.4621 73.9815 60.8298 73.02 61.0618L69.7839 61.843C69.4404 61.926 69.1721 62.1942 69.0891 62.5378L68.3079 65.7739C68.0759 66.7354 66.7082 66.7354 66.4761 65.7739L65.695 62.5378C65.612 62.1942 65.3438 61.926 65.0001 61.843L61.7641 61.0618C60.8026 60.8298 60.8026 59.4621 61.7641 59.23L65.0001 58.4489C65.3438 58.3659 65.612 58.0976 65.695 57.7541L66.4761 54.518Z" fill="white"/>
<path d="M200.448 196.187C200.702 195.133 202.201 195.133 202.456 196.187L203.312 199.734C203.403 200.11 203.697 200.405 204.074 200.495L207.621 201.352C208.674 201.606 208.674 203.105 207.621 203.36L204.074 204.216C203.697 204.307 203.403 204.601 203.312 204.977L202.456 208.524C202.201 209.579 200.702 209.579 200.448 208.524L199.591 204.977C199.5 204.601 199.206 204.307 198.83 204.216L195.283 203.36C194.229 203.105 194.229 201.606 195.283 201.352L198.83 200.495C199.206 200.405 199.5 200.11 199.591 199.734L200.448 196.187Z" fill="url(#paint1_linear_40_505)"/>
<path d="M51.6594 209.454C52.8586 209.262 53.8161 210.44 53.3827 211.575L50.4579 219.233C50.0246 220.368 48.5255 220.608 47.7596 219.665L42.5894 213.303C41.8233 212.361 42.365 210.943 43.5643 210.75L51.6594 209.454Z" fill="url(#paint2_linear_40_505)"/>
<path d="M205.597 62.5064C205.297 61.3295 206.384 60.2691 207.553 60.5977L215.446 62.8157C216.615 63.1442 216.99 64.6153 216.121 65.4637L210.254 71.1898C209.384 72.0381 207.923 71.6274 207.623 70.4505L205.597 62.5064Z" fill="url(#paint3_linear_40_505)"/>
<path d="M179.32 117.491L162.207 120.818C157.337 121.764 154.158 126.478 155.104 131.347C156.051 136.216 160.765 139.395 165.633 138.449L182.747 135.122C187.616 134.176 190.795 129.462 189.849 124.593C188.903 119.725 184.188 116.544 179.32 117.491Z" fill="url(#paint4_linear_40_505)"/>
<path d="M186.042 126.272C186.128 124.056 184.402 122.189 182.184 122.103C179.968 122.016 178.101 123.743 178.015 125.96C177.928 128.176 179.655 130.043 181.872 130.13C184.089 130.216 185.956 128.489 186.042 126.272Z" fill="#EBEBEB"/>
<path d="M182.446 128.273C183.638 128.041 184.416 126.887 184.185 125.696C183.953 124.504 182.799 123.726 181.607 123.957C180.416 124.188 179.637 125.342 179.869 126.535C180.101 127.726 181.255 128.505 182.446 128.273Z" fill="#DBDBDB"/>
<path d="M152.186 90.4435L64.804 107.429C59.8933 108.383 56.6862 113.138 57.6408 118.049L69.447 178.786C70.4015 183.697 75.1562 186.904 80.0669 185.949L167.448 168.964C172.36 168.01 175.566 163.255 174.612 158.344L162.805 97.6066C161.851 92.6963 157.097 89.489 152.186 90.4435Z" fill="url(#paint5_linear_40_505)"/>
<path d="M150.587 62.825L168.436 108.962C169.435 111.541 168.151 114.442 165.577 115.439L92.4036 143.748C89.829 144.746 86.9287 143.461 85.9292 140.883L68.08 94.745C67.1535 92.3446 68.3438 89.6475 70.7448 88.7211L144.56 60.1659C146.962 59.2395 149.658 60.4297 150.585 62.8308L150.587 62.825Z" fill="url(#paint6_linear_40_505)"/>
<path d="M154.024 107.061C154.939 109.434 153.763 112.101 151.39 113.016C149.019 113.932 146.35 112.754 145.436 110.382C144.52 108.011 145.697 105.343 148.07 104.427C150.441 103.512 153.11 104.69 154.024 107.061Z" fill="url(#paint7_linear_40_505)"/>
<path d="M159.309 105.012C160.225 107.384 159.047 110.052 156.676 110.968C154.304 111.883 151.636 110.705 150.72 108.334C149.805 105.961 150.983 103.294 153.354 102.379C155.727 101.463 158.394 102.641 159.309 105.012Z" fill="url(#paint8_linear_40_505)"/>
<path d="M90.1338 90.3261L78.1453 94.9638C77.1787 95.3379 76.6983 96.4248 77.0722 97.3913L79.8595 104.596C80.2334 105.563 81.3202 106.043 82.2868 105.669L94.2748 101.031C95.2422 100.658 95.7223 99.5707 95.3482 98.6042L92.5611 91.3995C92.187 90.4326 91.1 89.9522 90.1338 90.3261Z" fill="url(#paint9_linear_40_505)"/>
<path d="M144.701 75.9619L137.691 78.6718C136.069 79.2947 134.248 78.4909 133.621 76.8699C132.998 75.2472 133.802 73.4264 135.423 72.7993L142.432 70.0894C144.054 69.4624 145.876 70.2704 146.503 71.8914C147.126 73.514 146.322 75.3349 144.701 75.9619Z" fill="white"/>
<path d="M83.7409 116.318L83.251 116.937C83.251 116.937 83.2105 116.981 83.1814 116.992C83.1229 117.015 83.0601 117 83.019 116.969C82.9411 116.903 82.9309 116.801 82.9958 116.733L83.6601 115.871C83.7165 115.806 83.8304 115.791 83.8952 115.847C83.9304 115.877 83.949 115.913 83.9609 115.956L85.5585 120.081C85.5906 120.164 85.5553 120.259 85.4635 120.295C85.38 120.327 85.2819 120.283 85.2499 120.2L83.7492 116.315L83.7409 116.318Z" fill="#F8F8F8"/>
<path d="M86.6073 119.536L87.971 116.829C88.1317 116.499 88.1467 116.14 88.0234 115.818C87.9177 115.543 87.7077 115.308 87.4227 115.163C87.1014 115 86.7347 114.992 86.4235 115.116C86.1398 115.226 85.9014 115.427 85.7529 115.714L85.6129 115.998C85.5744 116.084 85.4685 116.12 85.3944 116.076C85.3078 116.037 85.2719 115.932 85.3153 115.858L85.4537 115.57C85.6413 115.211 85.9504 114.944 86.305 114.808C86.697 114.657 87.151 114.655 87.5695 114.873C87.9411 115.056 88.2007 115.358 88.3336 115.704C88.4858 116.101 88.481 116.562 88.2735 116.981L87.1059 119.301L89.2333 118.484C89.3151 118.448 89.4116 118.488 89.4468 118.579C89.4788 118.662 89.4352 118.761 89.3517 118.793L86.848 119.763L86.823 119.773C86.7771 119.791 86.7264 119.796 86.6886 119.772C86.603 119.723 86.5661 119.627 86.6047 119.541L86.6073 119.536Z" fill="#F8F8F8"/>
<path d="M91.5932 113.084L90.894 114.726C91.1992 114.676 91.5217 114.705 91.8224 114.839C92.2318 115.021 92.5325 115.356 92.6829 115.748C92.8333 116.14 92.8378 116.588 92.6512 117C92.4691 117.41 92.1358 117.714 91.7454 117.869C91.3623 118.016 90.9139 118.02 90.5024 117.834C90.4174 117.799 90.3748 117.702 90.416 117.609C90.4488 117.519 90.5489 117.481 90.6412 117.522C90.9673 117.661 91.3161 117.661 91.6249 117.542C91.9338 117.423 92.1974 117.188 92.346 116.864C92.4918 116.534 92.4864 116.183 92.3677 115.874C92.249 115.565 92.0144 115.301 91.6883 115.163C91.3632 115.015 91.0117 115.021 90.7028 115.139C90.653 115.159 90.5969 115.151 90.5494 115.126L90.5411 115.13C90.4503 115.093 90.4103 114.989 90.453 114.9L91.1249 113.321L89.4021 113.982C89.3119 114.022 89.2138 113.979 89.1802 113.891C89.145 113.799 89.1886 113.701 89.2762 113.667L91.3786 112.86C91.4682 112.821 91.567 112.865 91.6005 112.952C91.6104 112.977 91.6114 113.006 91.6068 113.031C91.6068 113.055 91.6005 113.077 91.5923 113.094L91.5932 113.084Z" fill="#F8F8F8"/>
<path d="M96.634 114.911L94.2019 115.853L94.1811 115.862C94.1476 115.874 94.1068 115.881 94.0724 115.865C93.9818 115.843 93.9338 115.741 93.9682 115.656L95.3169 111.415L95.3215 111.403C95.3532 111.31 95.4374 111.268 95.5307 111.299C95.5633 111.311 95.5878 111.335 95.6095 111.355C95.614 111.368 95.6258 111.372 95.6276 111.377L95.6358 111.398L96.8269 114.478L97.1276 114.362C97.2191 114.327 97.3178 114.371 97.3496 114.454C97.3813 114.537 97.3378 114.635 97.2499 114.669L96.9501 114.785L97.2463 115.556C97.278 115.64 97.2345 115.737 97.1467 115.771C97.0633 115.804 96.9655 115.759 96.9329 115.676L96.6367 114.904L96.634 114.911ZM96.5162 114.602L95.4972 111.973L94.3921 115.427L96.5189 114.61L96.5162 114.602Z" fill="#F8F8F8"/>
<path d="M102.449 113.213C102.359 113.176 102.319 113.072 102.363 112.987C102.402 112.901 102.504 112.857 102.592 112.899C102.918 113.038 103.268 113.038 103.576 112.919C103.885 112.801 104.14 112.569 104.287 112.24C104.434 111.91 104.429 111.562 104.311 111.255C104.191 110.941 103.956 110.678 103.632 110.534C103.311 110.394 102.957 110.396 102.648 110.514C102.335 110.634 102.076 110.868 101.929 111.197C101.89 111.284 101.786 111.323 101.704 111.284C101.678 111.279 101.658 111.263 101.648 111.247L101.644 111.239C101.644 111.239 101.631 111.23 101.628 111.222C101.615 111.212 101.607 111.191 101.6 111.175C101.597 111.167 101.596 111.152 101.591 111.139L101.108 109.244C101.089 109.194 101.098 109.142 101.126 109.103C101.141 109.068 101.174 109.042 101.215 109.025L103.31 108.222C103.399 108.182 103.497 108.226 103.532 108.313C103.568 108.409 103.523 108.504 103.436 108.537L101.475 109.29L101.831 110.694C102.008 110.467 102.244 110.296 102.515 110.192C102.908 110.042 103.344 110.032 103.761 110.221C104.179 110.4 104.468 110.729 104.622 111.13C104.769 111.514 104.785 111.967 104.594 112.38C104.41 112.785 104.073 113.092 103.686 113.241C103.293 113.391 102.845 113.396 102.436 113.214L102.449 113.213Z" fill="#F8F8F8"/>
<path d="M105.543 108.492C105.643 107.827 106.004 107.224 106.74 106.908C106.82 106.868 106.918 106.911 106.959 106.992C106.993 107.083 106.95 107.181 106.868 107.217C106.248 107.485 105.977 107.962 105.872 108.538C105.818 108.86 105.84 109.216 105.901 109.561C106.054 109.148 106.373 108.795 106.816 108.626C107.645 108.307 108.563 108.716 108.877 109.533C109.193 110.355 108.788 111.271 107.963 111.592C107.159 111.901 106.26 111.519 105.925 110.734C105.876 110.642 105.839 110.546 105.799 110.442C105.575 109.844 105.444 109.142 105.548 108.49L105.543 108.492ZM106.229 110.588C106.241 110.621 106.26 110.643 106.273 110.667C106.281 110.687 106.286 110.7 106.282 110.716C106.581 111.257 107.247 111.508 107.836 111.283C108.491 111.032 108.812 110.3 108.566 109.658C108.319 109.015 107.587 108.693 106.933 108.945C106.29 109.191 105.968 109.922 106.215 110.565L106.224 110.59L106.229 110.588Z" fill="#F8F8F8"/>
<path d="M111.001 110.168L111.137 105.584L108.963 106.418C108.881 106.453 108.784 106.414 108.753 106.331C108.721 106.248 108.764 106.149 108.848 106.117L111.225 105.204C111.253 105.179 111.283 105.168 111.321 105.168C111.367 105.174 111.415 105.199 111.442 105.231C111.458 105.249 111.467 105.26 111.474 105.277C111.486 105.31 111.487 105.338 111.48 105.37L111.34 110.176C111.337 110.244 111.292 110.305 111.234 110.326C111.209 110.336 111.196 110.341 111.167 110.338C111.075 110.336 111.001 110.254 110.996 110.169L111.001 110.168Z" fill="#F8F8F8"/>
<path d="M113.782 104.174C114.295 103.977 114.88 104.231 115.078 104.744C115.197 105.057 115.148 105.387 114.986 105.65C115.602 105.662 116.179 106.043 116.412 106.649C116.723 107.457 116.326 108.357 115.518 108.671C114.713 108.981 113.81 108.585 113.496 107.778C113.263 107.173 113.433 106.505 113.873 106.082C113.582 105.997 113.328 105.784 113.208 105.471C113.011 104.958 113.258 104.38 113.78 104.179L113.782 104.174ZM115.402 108.357C116.044 108.111 116.351 107.399 116.108 106.765C115.866 106.136 115.159 105.813 114.515 106.061C113.881 106.303 113.569 107.022 113.811 107.652C114.055 108.29 114.768 108.601 115.402 108.357ZM114.389 105.741C114.731 105.6 114.906 105.207 114.774 104.861C114.64 104.515 114.251 104.348 113.905 104.481C113.559 104.614 113.39 104.999 113.524 105.345C113.657 105.691 114.044 105.868 114.392 105.739L114.389 105.741Z" fill="#F8F8F8"/>
<path d="M121.765 101.086C122.537 100.789 123.38 101.117 123.747 101.823C123.76 101.833 123.763 101.841 123.772 101.852C123.827 101.97 123.881 102.097 123.932 102.23C124.161 102.827 124.29 103.538 124.195 104.188C124.091 104.84 123.726 105.459 122.999 105.771L122.991 105.775C122.899 105.81 122.804 105.775 122.771 105.692C122.737 105.599 122.773 105.509 122.862 105.465C123.472 105.197 123.762 104.718 123.858 104.144C123.908 103.815 123.898 103.464 123.829 103.122C123.676 103.535 123.352 103.874 122.902 104.048C122.084 104.361 121.167 103.967 120.844 103.138C120.53 102.321 120.939 101.403 121.757 101.089L121.765 101.086ZM123.51 102.105C123.264 101.463 122.539 101.147 121.885 101.399C121.242 101.645 120.919 102.373 121.164 103.011C121.415 103.666 122.142 103.975 122.784 103.729C123.439 103.478 123.762 102.76 123.506 102.106L123.51 102.105Z" fill="#F8F8F8"/>
<path d="M125.266 102.315C125.034 101.711 124.973 101.102 125.087 100.575C125.208 100.07 125.495 99.6441 125.949 99.4692C126.404 99.2944 126.906 99.4176 127.333 99.7084C127.765 100.022 128.143 100.508 128.38 101.111C128.611 101.716 128.66 102.329 128.547 102.846C128.428 103.356 128.142 103.786 127.688 103.961C127.233 104.135 126.731 104.012 126.301 103.713C125.869 103.41 125.497 102.917 125.265 102.312L125.266 102.315ZM125.579 102.196C125.791 102.746 126.131 103.185 126.498 103.441C126.862 103.694 127.246 103.772 127.568 103.648C127.889 103.524 128.112 103.209 128.219 102.776C128.315 102.342 128.279 101.786 128.068 101.236C127.857 100.685 127.507 100.249 127.145 99.991C126.772 99.7283 126.397 99.6613 126.075 99.7845C125.754 99.9076 125.517 100.214 125.424 100.657C125.328 101.091 125.372 101.643 125.585 102.198L125.579 102.196Z" fill="#F8F8F8"/>
<path d="M129.764 98.5171L129.275 99.1367C129.275 99.1367 129.234 99.1802 129.205 99.1919C129.146 99.2146 129.084 99.2001 129.042 99.1684C128.964 99.1023 128.954 99.0008 129.02 98.9329L129.684 98.0697C129.741 98.0053 129.854 97.99 129.919 98.047C129.954 98.076 129.972 98.1122 129.984 98.1557L131.582 102.28C131.614 102.364 131.578 102.458 131.487 102.494C131.404 102.526 131.306 102.482 131.273 102.398L129.773 98.5144L129.764 98.5171Z" fill="#F8F8F8"/>
<path d="M132.631 101.731L133.995 99.0252C134.156 98.6955 134.17 98.335 134.047 98.0143C133.941 97.7389 133.732 97.5034 133.447 97.3594C133.125 97.1955 132.758 97.1882 132.447 97.3123C132.164 97.421 131.927 97.6266 131.776 97.9092L131.637 98.1927C131.598 98.2797 131.492 98.315 131.418 98.2716C131.331 98.2335 131.295 98.1275 131.339 98.0533L131.477 97.7661C131.665 97.4065 131.974 97.1393 132.327 96.9989C132.719 96.8485 133.173 96.8467 133.591 97.0641C133.963 97.2471 134.223 97.5496 134.356 97.8957C134.508 98.2915 134.503 98.7534 134.295 99.1728L133.128 101.493L135.255 100.676C135.337 100.639 135.436 100.683 135.469 100.771C135.501 100.854 135.457 100.952 135.374 100.984L132.87 101.955L132.845 101.964C132.799 101.982 132.748 101.987 132.711 101.964C132.625 101.915 132.588 101.819 132.627 101.733L132.631 101.731Z" fill="#F8F8F8"/>
<path d="M141.461 93.7928L140.761 95.4359C141.067 95.3852 141.389 95.4141 141.689 95.5482C142.1 95.7303 142.4 96.0645 142.551 96.4567C142.701 96.8489 142.705 97.2973 142.519 97.7085C142.336 98.1189 142.003 98.4232 141.617 98.5763C141.234 98.7239 140.781 98.7303 140.369 98.5437C140.284 98.5093 140.242 98.4105 140.283 98.3181C140.318 98.233 140.416 98.1904 140.508 98.2312C140.834 98.3698 141.184 98.3698 141.493 98.2511C141.801 98.1324 142.065 97.8969 142.213 97.5727C142.359 97.2439 142.353 96.8915 142.235 96.5826C142.117 96.2747 141.881 96.0102 141.555 95.8725C141.231 95.7239 140.878 95.7303 140.57 95.8489C140.52 95.868 140.465 95.8607 140.417 95.8353L140.408 95.839C140.318 95.8018 140.277 95.6977 140.321 95.6089L140.992 94.031L139.269 94.6922C139.179 94.7312 139.081 94.6877 139.047 94.5998C139.013 94.5084 139.056 94.4096 139.143 94.3761L141.245 93.569C141.336 93.5301 141.434 93.5736 141.467 93.6614C141.477 93.6868 141.478 93.7149 141.474 93.7402C141.474 93.7647 141.467 93.7855 141.46 93.8027L141.461 93.7928Z" fill="#F8F8F8"/>
<path d="M146.503 95.6188L144.067 96.5545L144.06 96.5617L144.048 96.5662C144.015 96.5789 143.976 96.5898 143.94 96.5699C143.849 96.5472 143.801 96.4458 143.835 96.3606L145.184 92.1197L145.189 92.1079C145.22 92.0146 145.305 91.9729 145.398 92.0046C145.43 92.0155 145.455 92.04 145.477 92.0599C145.481 92.0726 145.489 92.0789 145.495 92.0816L145.503 92.1025L146.694 95.1822L146.995 95.0671C147.086 95.0318 147.185 95.0753 147.217 95.1586C147.248 95.242 147.205 95.3407 147.117 95.3742L146.817 95.4892L147.113 96.261C147.145 96.3443 147.102 96.4421 147.014 96.4757C146.93 96.5083 146.833 96.4648 146.8 96.3806L146.504 95.6088L146.503 95.6188ZM146.384 95.3108L145.366 92.6813L144.26 96.1351L146.388 95.319L146.384 95.3108Z" fill="#F8F8F8"/>
<path d="M148.469 95.4085C148.378 95.3714 148.338 95.2672 148.383 95.183C148.421 95.0969 148.526 95.0562 148.612 95.0951C148.938 95.2328 149.287 95.2328 149.596 95.115C149.904 94.9964 150.16 94.7645 150.307 94.4348C150.453 94.106 150.449 93.7582 150.33 93.4493C150.21 93.1368 149.975 92.8732 149.652 92.7292C149.328 92.5851 148.976 92.5906 148.668 92.7092C148.355 92.8297 148.096 93.0634 147.949 93.3922C147.91 93.4792 147.807 93.5226 147.723 93.4783C147.698 93.4737 147.677 93.4583 147.667 93.4429L147.663 93.4348C147.663 93.4348 147.651 93.4257 147.647 93.4167C147.634 93.4076 147.626 93.3868 147.62 93.3705C147.616 93.3614 147.615 93.3478 147.611 93.3351L147.127 91.4393C147.108 91.3886 147.117 91.3379 147.145 91.298C147.161 91.2636 147.193 91.2364 147.235 91.221L149.328 90.4169C149.419 90.3775 149.517 90.4212 149.55 90.5088C149.587 90.6051 149.542 90.6984 149.454 90.7319L147.494 91.4846L147.851 92.8886C148.029 92.6676 148.263 92.4909 148.535 92.3877C148.926 92.2364 149.363 92.2274 149.78 92.4167C150.199 92.596 150.488 92.9248 150.642 93.3252C150.788 93.7092 150.805 94.1621 150.614 94.5752C150.43 94.981 150.093 95.2871 149.705 95.4366C149.313 95.587 148.865 95.5915 148.455 95.4094L148.469 95.4085Z" fill="#F8F8F8"/>
<path d="M151.563 90.6874C151.663 90.0222 152.022 89.4148 152.76 89.1031C152.84 89.0628 152.938 89.1065 152.978 89.1867C153.013 89.2785 152.97 89.3766 152.888 89.4128C152.27 89.6837 151.996 90.1571 151.892 90.7336C151.838 91.0551 151.86 91.4102 151.921 91.7562C152.074 91.3432 152.393 90.9908 152.835 90.8214C153.665 90.5024 154.583 90.9111 154.897 91.7281C155.213 92.5506 154.808 93.4664 153.983 93.7879C153.178 94.0968 152.28 93.7145 151.945 92.9283C151.896 92.8377 151.859 92.7417 151.819 92.6376C151.594 92.0388 151.463 91.3377 151.568 90.6856L151.563 90.6874ZM152.249 92.7834C152.261 92.8169 152.28 92.8386 152.293 92.8622C152.301 92.883 152.306 92.8957 152.302 92.9111C152.601 93.4519 153.267 93.7037 153.855 93.4781C154.51 93.2263 154.832 92.4953 154.586 91.8531C154.339 91.21 153.607 90.8885 152.953 91.1394C152.31 91.3866 151.988 92.1176 152.234 92.7598L152.244 92.7852L152.249 92.7834Z" fill="#F8F8F8"/>
<path d="M128.038 112.686L88.8555 127.844L89.6003 129.769L128.782 114.61L128.038 112.686Z" fill="url(#paint10_linear_40_505)"/>
<path d="M118.248 121.391L90.5078 132.123L91.2523 134.048L118.992 123.316L118.248 121.391Z" fill="url(#paint11_linear_40_505)"/>
<path d="M128.829 75.353L111.215 82.1673C110.683 82.373 110.419 82.9707 110.624 83.5023C110.83 84.0339 111.428 84.2982 111.96 84.0925L129.574 77.2782C130.105 77.0725 130.369 76.4748 130.163 75.9432C129.958 75.4116 129.36 75.1473 128.829 75.353Z" fill="#3B3B3B"/>
<path d="M161.106 124.535L69.3008 142.381L76.445 179.135L168.251 161.29L161.106 124.535Z" fill="url(#paint12_linear_40_505)"/>
<path opacity="0.2" d="M161.106 124.535L69.3008 142.381L76.445 179.135L168.251 161.29L161.106 124.535Z" fill="black"/>
<path d="M169.588 183.287L79.1379 187.864C74.6343 188.092 70.649 184.973 69.7885 180.546L56.7683 113.562C56.461 111.982 58.0852 110.725 59.5379 111.42C61.2239 112.225 63.0972 112.567 64.9645 112.409L146.218 105.459C150.831 105.064 154.999 108.211 155.882 112.755L169.591 183.282C169.591 183.283 169.589 183.286 169.588 183.287Z" fill="url(#paint13_linear_40_505)"/>
<path d="M150.373 150.298C152.478 149.889 153.807 147.613 153.341 145.216C152.875 142.818 150.791 141.206 148.686 141.614C146.581 142.023 145.252 144.299 145.718 146.697C146.185 149.095 148.269 150.707 150.373 150.298Z" fill="#EBEBEB"/>
<path d="M151.302 145.613C151.518 146.727 150.9 147.785 149.922 147.974C148.944 148.164 147.975 147.415 147.758 146.301C147.542 145.188 148.159 144.13 149.138 143.94C150.116 143.749 151.085 144.499 151.302 145.613Z" fill="#DBDBDB"/>
</g>
<defs>
<filter id="filter0_f_40_505" x="-5.08594" y="-5.08789" width="260.176" height="260.174" filterUnits="userSpaceOnUse" color-interpolation-filters="sRGB">
<feFlood flood-opacity="0" result="BackgroundImageFix"/>
<feBlend mode="normal" in="SourceGraphic" in2="BackgroundImageFix" result="shape"/>
<feGaussianBlur stdDeviation="27" result="effect1_foregroundBlur_40_505"/>
</filter>
<linearGradient id="paint0_linear_40_505" x1="73.5517" y1="48.9121" x2="220.706" y2="77.2917" gradientUnits="userSpaceOnUse">
<stop stop-color="#A259FF" stop-opacity="0"/>
<stop offset="1" stop-color="#FF6250"/>
</linearGradient>
<linearGradient id="paint1_linear_40_505" x1="204.427" y1="198.49" x2="217.769" y2="208.969" gradientUnits="userSpaceOnUse">
<stop stop-color="#A259FF"/>
<stop offset="1" stop-color="#377DF7"/>
</linearGradient>
<linearGradient id="paint2_linear_40_505" x1="52.8961" y1="213.338" x2="52.4504" y2="226.614" gradientUnits="userSpaceOnUse">
<stop stop-color="#59C3FF"/>
<stop offset="1" stop-color="#377DF7"/>
</linearGradient>
<linearGradient id="paint3_linear_40_505" x1="209.354" y1="60.9223" x2="222.615" y2="60.1618" gradientUnits="userSpaceOnUse">
<stop stop-color="#AAA1B6"/>
<stop offset="1" stop-color="#377DF7"/>
</linearGradient>
<linearGradient id="paint4_linear_40_505" x1="159.015" y1="121.437" x2="191.716" y2="127.091" gradientUnits="userSpaceOnUse">
<stop stop-color="#A259FF"/>
<stop offset="1" stop-color="#3B3B3B"/>
</linearGradient>
<linearGradient id="paint5_linear_40_505" x1="137.5" y1="203.71" x2="102.175" y2="134.339" gradientUnits="userSpaceOnUse">
<stop stop-color="#A259FF"/>
<stop offset="1" stop-color="#3B3B3B"/>
</linearGradient>
<linearGradient id="paint6_linear_40_505" x1="79.7244" y1="85.054" x2="164.798" y2="77.7059" gradientUnits="userSpaceOnUse">
<stop stop-color="#A259FF"/>
<stop offset="1" stop-color="#FF6250"/>
</linearGradient>
<linearGradient id="paint7_linear_40_505" x1="145.173" y1="105.54" x2="154.102" y2="103.952" gradientUnits="userSpaceOnUse">
<stop stop-color="#A259FF"/>
<stop offset="1" stop-color="#FF6250"/>
</linearGradient>
<linearGradient id="paint8_linear_40_505" x1="150.459" y1="103.49" x2="159.387" y2="101.903" gradientUnits="userSpaceOnUse">
<stop stop-color="#A259FF"/>
<stop offset="1" stop-color="#3B3B3B"/>
</linearGradient>
<linearGradient id="paint9_linear_40_505" x1="78.9028" y1="94.6712" x2="94.8718" y2="93.1169" gradientUnits="userSpaceOnUse">
<stop stop-color="#A259FF"/>
<stop offset="1" stop-color="#3B3B3B"/>
</linearGradient>
<linearGradient id="paint10_linear_40_505" x1="95.199" y1="125.389" x2="101.232" y2="133.865" gradientUnits="userSpaceOnUse">
<stop stop-color="#A259FF"/>
<stop offset="1" stop-color="#FF6250"/>
</linearGradient>
<linearGradient id="paint11_linear_40_505" x1="94.9987" y1="130.385" x2="101.618" y2="138.016" gradientUnits="userSpaceOnUse">
<stop stop-color="#A259FF"/>
<stop offset="1" stop-color="#FF6250"/>
</linearGradient>
<linearGradient id="paint12_linear_40_505" x1="84.1645" y1="139.492" x2="165.898" y2="160.966" gradientUnits="userSpaceOnUse">
<stop stop-color="#A259FF"/>
<stop offset="1" stop-color="#3B3B3B"/>
</linearGradient>
<linearGradient id="paint13_linear_40_505" x1="145.196" y1="160.976" x2="3.60758" y2="93.0235" gradientUnits="userSpaceOnUse">
<stop stop-color="#A259FF"/>
<stop offset="0.666667" stop-color="white"/>
</linearGradient>
<clipPath id="clip0_40_505">
<rect width="250" height="250" fill="white"/>
</clipPath>
</defs>
</svg>
