<svg width="32" height="33" viewBox="0 0 32 33" fill="none" xmlns="http://www.w3.org/2000/svg">
<path fill-rule="evenodd" clip-rule="evenodd" d="M16.0078 12.7227C13.7987 12.7227 12.0078 14.5135 12.0078 16.7227C12.0078 18.9318 13.7987 20.7227 16.0078 20.7227C18.217 20.7227 20.0078 18.9318 20.0078 16.7227C20.0078 14.5135 18.217 12.7227 16.0078 12.7227ZM10.0078 16.7227C10.0078 13.4089 12.6941 10.7227 16.0078 10.7227C19.3215 10.7227 22.0078 13.4089 22.0078 16.7227C22.0078 20.0364 19.3215 22.7227 16.0078 22.7227C12.6941 22.7227 10.0078 20.0364 10.0078 16.7227Z" fill="#858584"/>
<path fill-rule="evenodd" clip-rule="evenodd" d="M10.5078 6.22266C7.74639 6.22266 5.50781 8.46123 5.50781 11.2227V22.2227C5.50781 24.9841 7.74639 27.2227 10.5078 27.2227H21.5078C24.2692 27.2227 26.5078 24.9841 26.5078 22.2227V11.2227C26.5078 8.46123 24.2692 6.22266 21.5078 6.22266H10.5078ZM3.50781 11.2227C3.50781 7.35666 6.64182 4.22266 10.5078 4.22266H21.5078C25.3738 4.22266 28.5078 7.35666 28.5078 11.2227V22.2227C28.5078 26.0886 25.3738 29.2227 21.5078 29.2227H10.5078C6.64182 29.2227 3.50781 26.0886 3.50781 22.2227V11.2227Z" fill="#858584"/>
<path d="M22.5078 11.7227C23.3362 11.7227 24.0078 11.0511 24.0078 10.2227C24.0078 9.39423 23.3362 8.72266 22.5078 8.72266C21.6794 8.72266 21.0078 9.39423 21.0078 10.2227C21.0078 11.0511 21.6794 11.7227 22.5078 11.7227Z" fill="#858584"/>
</svg>
