<svg width="276" height="276" viewBox="0 0 276 276" fill="none" xmlns="http://www.w3.org/2000/svg">
<g clip-path="url(#clip0_10_2557)">
<path d="M138 253C201.513 253 253 201.513 253 138C253 74.4873 201.513 23 138 23C74.4872 23 23 74.4873 23 138C23 201.513 74.4872 253 138 253Z" fill="url(#paint0_linear_10_2557)"/>
<g filter="url(#filter0_f_10_2557)">
<path d="M138 222C184.392 222 222 184.392 222 138C222 91.6081 184.392 54 138 54C91.6081 54 54 91.6081 54 138C54 184.392 91.6081 222 138 222Z" fill="url(#paint1_linear_10_2557)"/>
</g>
<path fill-rule="evenodd" clip-rule="evenodd" d="M130.096 44.5801C132.02 44.5801 133.58 43.0204 133.58 41.0964C133.58 39.1725 132.02 37.6128 130.096 37.6128C128.172 37.6128 126.613 39.1725 126.613 41.0964C126.613 43.0204 128.172 44.5801 130.096 44.5801ZM130.096 47.1929C133.463 47.1929 136.193 44.4634 136.193 41.0964C136.193 37.7295 133.463 35 130.096 35C126.729 35 124 37.7295 124 41.0964C124 44.4634 126.729 47.1929 130.096 47.1929Z" fill="white"/>
<path fill-rule="evenodd" clip-rule="evenodd" d="M47.0964 204.58C49.0204 204.58 50.5801 203.02 50.5801 201.096C50.5801 199.172 49.0204 197.613 47.0964 197.613C45.1725 197.613 43.6128 199.172 43.6128 201.096C43.6128 203.02 45.1725 204.58 47.0964 204.58ZM47.0964 207.193C50.4634 207.193 53.1929 204.463 53.1929 201.096C53.1929 197.729 50.4634 195 47.0964 195C43.7295 195 41 197.729 41 201.096C41 204.463 43.7295 207.193 47.0964 207.193Z" fill="white"/>
<path fill-rule="evenodd" clip-rule="evenodd" d="M238.098 196.58C240.022 196.58 241.582 195.02 241.582 193.096C241.582 191.172 240.022 189.613 238.098 189.613C236.174 189.613 234.615 191.172 234.615 193.096C234.615 195.02 236.174 196.58 238.098 196.58ZM238.098 199.193C241.465 199.193 244.195 196.463 244.195 193.096C244.195 189.729 241.465 187 238.098 187C234.731 187 232.002 189.729 232.002 193.096C232.002 196.463 234.731 199.193 238.098 199.193Z" fill="white"/>
<path d="M73.391 60.1887C73.6472 59.1272 75.1571 59.1272 75.4133 60.1887L76.2757 63.7613C76.3673 64.1406 76.6635 64.4368 77.0428 64.5284L80.6154 65.3908C81.6769 65.647 81.6769 67.1569 80.6154 67.4131L77.0428 68.2755C76.6635 68.3671 76.3673 68.6632 76.2757 69.0426L75.4133 72.6152C75.1571 73.6767 73.6472 73.6767 73.391 72.6152L72.5286 69.0426C72.437 68.6632 72.1409 68.3671 71.7615 68.2755L68.1889 67.4131C67.1274 67.1569 67.1274 65.647 68.1889 65.3908L71.7615 64.5284C72.1409 64.4368 72.437 64.1406 72.5286 63.7613L73.391 60.1887Z" fill="white"/>
<path d="M221.296 216.591C221.577 215.428 223.232 215.428 223.513 216.591L224.458 220.507C224.558 220.923 224.883 221.248 225.299 221.348L229.215 222.294C230.378 222.574 230.378 224.229 229.215 224.51L225.299 225.456C224.883 225.556 224.558 225.881 224.458 226.296L223.513 230.212C223.232 231.376 221.577 231.376 221.296 230.212L220.35 226.296C220.25 225.881 219.925 225.556 219.51 225.456L215.594 224.51C214.43 224.229 214.43 222.574 215.594 222.294L219.51 221.348C219.925 221.248 220.25 220.923 220.35 220.507L221.296 216.591Z" fill="url(#paint2_linear_10_2557)"/>
<path d="M57.031 231.237C58.355 231.025 59.412 232.325 58.9336 233.578L55.7046 242.033C55.2262 243.286 53.5712 243.551 52.7256 242.51L47.0177 235.486C46.172 234.446 46.77 232.88 48.094 232.668L57.031 231.237Z" fill="url(#paint3_linear_10_2557)"/>
<path d="M226.98 69.0066C226.649 67.7073 227.848 66.5366 229.139 66.8994L237.853 69.348C239.143 69.7107 239.558 71.3348 238.598 72.2714L232.121 78.5931C231.161 79.5296 229.548 79.0762 229.216 77.7769L226.98 69.0066Z" fill="url(#paint4_linear_10_2557)"/>
<path d="M197.967 129.711L179.074 133.384C173.698 134.428 170.188 139.633 171.233 145.008C172.278 150.383 177.482 153.893 182.857 152.849L201.751 149.176C207.126 148.131 210.636 142.927 209.591 137.552C208.547 132.177 203.342 128.666 197.967 129.711Z" fill="url(#paint5_linear_10_2557)"/>
<path d="M205.392 139.404C205.487 136.957 203.581 134.896 201.133 134.801C198.686 134.705 196.625 136.612 196.53 139.059C196.434 141.506 198.341 143.567 200.788 143.663C203.236 143.758 205.297 141.851 205.392 139.404Z" fill="#EBEBEB"/>
<path d="M201.421 141.614C202.737 141.358 203.596 140.084 203.341 138.769C203.085 137.453 201.811 136.594 200.495 136.849C199.18 137.105 198.32 138.379 198.576 139.695C198.832 141.01 200.106 141.87 201.421 141.614Z" fill="#DBDBDB"/>
<path d="M168.011 99.8499L71.5416 118.602C66.1202 119.655 62.5796 124.905 63.6334 130.326L76.6675 197.38C77.7213 202.802 82.9704 206.342 88.3918 205.288L184.861 186.537C190.283 185.483 193.823 180.234 192.77 174.812L179.735 107.758C178.682 102.337 173.433 98.7961 168.011 99.8499Z" fill="url(#paint6_linear_10_2557)"/>
<path d="M166.248 69.3583L185.954 120.294C187.057 123.141 185.639 126.343 182.797 127.444L102.014 158.697C99.1717 159.799 95.9697 158.381 94.8663 155.534L75.1608 104.598C74.1379 101.948 75.452 98.9704 78.1027 97.9476L159.595 66.4227C162.246 65.3999 165.223 66.7139 166.246 69.3647L166.248 69.3583Z" fill="url(#paint7_linear_10_2557)"/>
<path d="M170.043 118.196C171.053 120.815 169.754 123.76 167.135 124.77C164.517 125.781 161.571 124.481 160.561 121.862C159.55 119.244 160.85 116.299 163.469 115.288C166.087 114.278 169.033 115.578 170.043 118.196Z" fill="url(#paint8_linear_10_2557)"/>
<path d="M175.879 115.934C176.89 118.553 175.59 121.498 172.972 122.509C170.353 123.519 167.408 122.219 166.397 119.601C165.387 116.982 166.687 114.037 169.305 113.027C171.924 112.016 174.869 113.316 175.879 115.934Z" fill="url(#paint9_linear_10_2557)"/>
<path d="M99.5083 99.72L86.273 104.84C85.2059 105.253 84.6755 106.453 85.0883 107.52L88.1655 115.474C88.5783 116.541 89.7781 117.072 90.8452 116.659L104.08 111.538C105.148 111.126 105.678 109.926 105.265 108.859L102.188 100.905C101.775 99.8376 100.575 99.3072 99.5083 99.72Z" fill="url(#paint10_linear_10_2557)"/>
<path d="M159.749 83.8629L152.01 86.8546C150.219 87.5423 148.209 86.6549 147.516 84.8653C146.829 83.0739 147.716 81.0637 149.506 80.3714L157.244 77.3797C159.034 76.6875 161.046 77.5795 161.738 79.3691C162.426 81.1604 161.538 83.1707 159.749 83.8629Z" fill="white"/>
<path d="M92.4508 128.416L91.91 129.099C91.91 129.099 91.8653 129.148 91.8331 129.16C91.7686 129.185 91.6992 129.169 91.6539 129.134C91.5679 129.061 91.5566 128.949 91.6282 128.874L92.3616 127.922C92.4239 127.85 92.5497 127.834 92.6212 127.896C92.6601 127.929 92.6806 127.968 92.6937 128.016L94.4575 132.57C94.4929 132.662 94.4539 132.767 94.3526 132.806C94.2604 132.841 94.1521 132.793 94.1168 132.701L92.46 128.412L92.4508 128.416Z" fill="#F8F8F8"/>
<path d="M95.6157 131.967L97.1213 128.979C97.2987 128.615 97.3152 128.218 97.1791 127.863C97.0624 127.559 96.8306 127.3 96.5159 127.14C96.1612 126.96 95.7564 126.951 95.4128 127.088C95.0996 127.209 94.8364 127.431 94.6725 127.748L94.5179 128.061C94.4754 128.156 94.3585 128.196 94.2767 128.148C94.1811 128.105 94.1415 127.989 94.1894 127.907L94.3422 127.589C94.5493 127.193 94.8905 126.898 95.282 126.748C95.7148 126.581 96.216 126.579 96.678 126.819C97.0883 127.021 97.3749 127.355 97.5216 127.737C97.6896 128.175 97.6843 128.684 97.4552 129.147L96.1662 131.708L98.5148 130.806C98.6051 130.766 98.7117 130.81 98.7506 130.911C98.7859 131.003 98.7377 131.112 98.6456 131.147L95.8815 132.218L95.8539 132.229C95.8032 132.249 95.7472 132.254 95.7055 132.228C95.611 132.174 95.5703 132.068 95.6129 131.973L95.6157 131.967Z" fill="#F8F8F8"/>
<path d="M101.119 124.844L100.347 126.657C100.684 126.602 101.04 126.634 101.372 126.782C101.824 126.983 102.156 127.352 102.322 127.785C102.488 128.218 102.493 128.713 102.287 129.167C102.086 129.62 101.718 129.956 101.287 130.127C100.864 130.289 100.369 130.294 99.9147 130.088C99.8209 130.05 99.7739 129.942 99.8193 129.84C99.8555 129.741 99.966 129.699 100.068 129.744C100.428 129.897 100.813 129.897 101.154 129.766C101.495 129.635 101.786 129.375 101.95 129.017C102.111 128.653 102.105 128.265 101.974 127.924C101.843 127.583 101.584 127.292 101.224 127.14C100.865 126.976 100.477 126.983 100.136 127.113C100.081 127.135 100.019 127.126 99.9666 127.099L99.9574 127.103C99.8572 127.062 99.813 126.947 99.8602 126.849L100.602 125.106L98.7 125.836C98.6004 125.88 98.4921 125.832 98.455 125.735C98.4161 125.634 98.4643 125.525 98.561 125.488L100.882 124.597C100.981 124.554 101.09 124.602 101.127 124.699C101.138 124.726 101.139 124.758 101.134 124.786C101.134 124.812 101.127 124.836 101.118 124.855L101.119 124.844Z" fill="#F8F8F8"/>
<path d="M106.685 126.861L104 127.902L103.977 127.911C103.94 127.925 103.895 127.932 103.857 127.915C103.757 127.89 103.704 127.778 103.742 127.684L105.231 123.002L105.236 122.989C105.271 122.886 105.364 122.84 105.467 122.874C105.503 122.887 105.53 122.914 105.554 122.936C105.559 122.95 105.572 122.955 105.574 122.96L105.583 122.983L106.898 126.383L107.23 126.255C107.331 126.217 107.44 126.265 107.475 126.357C107.51 126.449 107.462 126.557 107.365 126.594L107.034 126.722L107.361 127.574C107.396 127.666 107.348 127.774 107.251 127.811C107.159 127.847 107.051 127.798 107.015 127.706L106.688 126.854L106.685 126.861ZM106.555 126.52L105.43 123.618L104.21 127.431L106.558 126.529L106.555 126.52Z" fill="#F8F8F8"/>
<path d="M113.104 124.988C113.004 124.947 112.96 124.832 113.009 124.739C113.052 124.644 113.165 124.595 113.262 124.642C113.622 124.795 114.008 124.795 114.348 124.664C114.689 124.533 114.971 124.277 115.133 123.914C115.295 123.55 115.29 123.166 115.159 122.826C115.027 122.48 114.767 122.189 114.41 122.03C114.055 121.876 113.665 121.878 113.324 122.008C112.978 122.141 112.692 122.399 112.53 122.762C112.487 122.858 112.372 122.902 112.281 122.858C112.253 122.853 112.23 122.835 112.219 122.818L112.215 122.809C112.215 122.809 112.201 122.799 112.197 122.79C112.183 122.779 112.174 122.756 112.167 122.738C112.163 122.729 112.162 122.713 112.157 122.699L111.623 120.606C111.602 120.551 111.612 120.494 111.643 120.451C111.66 120.412 111.696 120.383 111.742 120.365L114.054 119.478C114.153 119.434 114.261 119.482 114.299 119.579C114.339 119.685 114.289 119.789 114.193 119.826L112.028 120.657L112.422 122.207C112.617 121.957 112.877 121.768 113.177 121.653C113.61 121.487 114.092 121.476 114.552 121.685C115.014 121.883 115.333 122.246 115.503 122.688C115.665 123.112 115.683 123.613 115.472 124.069C115.269 124.516 114.897 124.855 114.469 125.019C114.036 125.185 113.541 125.19 113.089 124.989L113.104 124.988Z" fill="#F8F8F8"/>
<path d="M116.518 119.774C116.628 119.04 117.027 118.374 117.839 118.025C117.928 117.981 118.036 118.029 118.081 118.118C118.119 118.219 118.071 118.327 117.981 118.367C117.296 118.662 116.997 119.189 116.881 119.825C116.822 120.18 116.846 120.573 116.913 120.954C117.082 120.498 117.434 120.109 117.923 119.922C118.839 119.57 119.852 120.021 120.199 120.924C120.547 121.831 120.1 122.842 119.19 123.197C118.302 123.538 117.31 123.116 116.94 122.249C116.886 122.148 116.845 122.042 116.801 121.927C116.553 121.267 116.409 120.492 116.523 119.772L116.518 119.774ZM117.275 122.088C117.289 122.125 117.309 122.149 117.324 122.175C117.333 122.198 117.338 122.212 117.334 122.229C117.664 122.827 118.399 123.104 119.049 122.855C119.772 122.578 120.127 121.77 119.855 121.061C119.583 120.352 118.775 119.996 118.052 120.274C117.343 120.546 116.987 121.353 117.26 122.063L117.27 122.09L117.275 122.088Z" fill="#F8F8F8"/>
<path d="M122.544 121.626L122.694 116.565L120.294 117.486C120.204 117.525 120.097 117.482 120.062 117.39C120.027 117.298 120.075 117.189 120.167 117.154L122.792 116.146C122.823 116.118 122.856 116.106 122.898 116.106C122.948 116.113 123.001 116.14 123.031 116.176C123.049 116.196 123.059 116.208 123.066 116.226C123.08 116.263 123.081 116.294 123.073 116.329L122.918 121.635C122.915 121.71 122.866 121.777 122.802 121.801C122.774 121.812 122.76 121.817 122.727 121.814C122.626 121.811 122.544 121.721 122.539 121.627L122.544 121.626Z" fill="#F8F8F8"/>
<path d="M125.615 115.008C126.182 114.791 126.828 115.071 127.046 115.637C127.178 115.983 127.123 116.347 126.944 116.638C127.625 116.651 128.262 117.072 128.519 117.74C128.862 118.633 128.424 119.626 127.532 119.973C126.643 120.315 125.646 119.878 125.299 118.987C125.042 118.319 125.23 117.581 125.716 117.115C125.395 117.021 125.114 116.786 124.982 116.44C124.764 115.874 125.037 115.235 125.613 115.014L125.615 115.008ZM127.404 119.626C128.113 119.354 128.451 118.569 128.183 117.869C127.916 117.174 127.135 116.818 126.425 117.091C125.725 117.359 125.38 118.152 125.647 118.848C125.917 119.552 126.704 119.895 127.404 119.626ZM126.285 116.738C126.663 116.582 126.856 116.149 126.71 115.766C126.563 115.384 126.133 115.2 125.751 115.347C125.369 115.494 125.183 115.919 125.33 116.301C125.477 116.683 125.905 116.878 126.289 116.736L126.285 116.738Z" fill="#F8F8F8"/>
<path d="M134.43 111.599C135.282 111.272 136.213 111.634 136.618 112.413C136.632 112.424 136.636 112.433 136.646 112.445C136.706 112.575 136.766 112.716 136.822 112.863C137.075 113.522 137.218 114.307 137.113 115.024C136.998 115.744 136.595 116.427 135.792 116.772L135.783 116.776C135.682 116.815 135.577 116.776 135.541 116.684C135.503 116.582 135.543 116.482 135.641 116.434C136.315 116.138 136.635 115.609 136.741 114.976C136.796 114.612 136.785 114.225 136.709 113.847C136.54 114.303 136.182 114.678 135.685 114.869C134.782 115.215 133.77 114.78 133.413 113.865C133.067 112.963 133.518 111.949 134.421 111.603L134.43 111.599ZM136.357 112.725C136.085 112.016 135.285 111.667 134.562 111.945C133.853 112.217 133.496 113.02 133.766 113.725C134.044 114.448 134.846 114.789 135.555 114.517C136.278 114.24 136.635 113.448 136.352 112.726L136.357 112.725Z" fill="#F8F8F8"/>
<path d="M138.296 112.957C138.04 112.29 137.972 111.618 138.098 111.036C138.232 110.478 138.548 110.008 139.05 109.815C139.552 109.622 140.106 109.758 140.578 110.079C141.054 110.425 141.472 110.962 141.733 111.628C141.989 112.295 142.043 112.972 141.918 113.543C141.786 114.106 141.471 114.581 140.969 114.774C140.467 114.966 139.913 114.83 139.438 114.5C138.961 114.166 138.551 113.621 138.294 112.953L138.296 112.957ZM138.641 112.825C138.875 113.433 139.251 113.917 139.656 114.2C140.058 114.479 140.482 114.565 140.837 114.428C141.191 114.292 141.438 113.944 141.556 113.466C141.662 112.986 141.622 112.373 141.389 111.765C141.156 111.157 140.77 110.676 140.37 110.391C139.958 110.101 139.544 110.027 139.189 110.163C138.834 110.299 138.573 110.637 138.47 111.126C138.364 111.605 138.413 112.215 138.648 112.828L138.641 112.825Z" fill="#F8F8F8"/>
<path d="M143.259 108.763L142.719 109.447C142.719 109.447 142.674 109.495 142.642 109.508C142.577 109.533 142.508 109.517 142.462 109.482C142.376 109.409 142.365 109.297 142.437 109.222L143.17 108.269C143.233 108.198 143.358 108.181 143.43 108.244C143.469 108.276 143.489 108.316 143.502 108.364L145.266 112.917C145.301 113.01 145.262 113.114 145.161 113.153C145.069 113.189 144.961 113.14 144.925 113.048L143.269 108.76L143.259 108.763Z" fill="#F8F8F8"/>
<path d="M146.423 112.311L147.928 109.324C148.106 108.96 148.122 108.562 147.986 108.208C147.869 107.904 147.638 107.644 147.323 107.485C146.968 107.304 146.563 107.296 146.22 107.433C145.907 107.553 145.645 107.78 145.479 108.092L145.325 108.405C145.282 108.501 145.165 108.54 145.084 108.492C144.988 108.45 144.948 108.333 144.996 108.251L145.149 107.934C145.356 107.537 145.697 107.242 146.087 107.087C146.52 106.921 147.021 106.919 147.483 107.159C147.893 107.361 148.18 107.695 148.327 108.077C148.495 108.514 148.489 109.024 148.26 109.487L146.971 112.048L149.32 111.146C149.41 111.106 149.519 111.154 149.556 111.251C149.591 111.343 149.543 111.451 149.451 111.487L146.687 112.558L146.659 112.569C146.608 112.588 146.552 112.594 146.511 112.568C146.416 112.514 146.375 112.408 146.418 112.313L146.423 112.311Z" fill="#F8F8F8"/>
<path d="M156.173 103.547L155.4 105.361C155.738 105.305 156.094 105.337 156.425 105.485C156.878 105.686 157.21 106.055 157.376 106.488C157.542 106.921 157.547 107.416 157.341 107.87C157.139 108.323 156.772 108.659 156.345 108.828C155.922 108.991 155.422 108.998 154.968 108.792C154.874 108.754 154.827 108.645 154.873 108.543C154.911 108.449 155.019 108.402 155.121 108.447C155.481 108.6 155.867 108.6 156.208 108.469C156.548 108.338 156.84 108.078 157.003 107.72C157.165 107.357 157.158 106.968 157.028 106.627C156.897 106.287 156.637 105.995 156.277 105.843C155.919 105.679 155.53 105.686 155.189 105.817C155.134 105.838 155.073 105.83 155.02 105.802L155.011 105.806C154.911 105.765 154.866 105.65 154.914 105.552L155.655 103.81L153.753 104.54C153.654 104.583 153.546 104.535 153.508 104.438C153.47 104.337 153.518 104.228 153.614 104.191L155.935 103.3C156.035 103.257 156.143 103.305 156.18 103.402C156.191 103.43 156.192 103.461 156.187 103.489C156.187 103.516 156.18 103.539 156.172 103.558L156.173 103.547Z" fill="#F8F8F8"/>
<path d="M161.739 105.564L159.05 106.597L159.042 106.605L159.029 106.61C158.992 106.624 158.949 106.636 158.909 106.614C158.809 106.589 158.756 106.477 158.794 106.383L160.283 101.701L160.288 101.688C160.323 101.585 160.416 101.539 160.519 101.574C160.555 101.586 160.582 101.613 160.606 101.635C160.611 101.649 160.62 101.656 160.626 101.659L160.635 101.682L161.95 105.082L162.282 104.955C162.383 104.916 162.492 104.964 162.527 105.056C162.562 105.148 162.514 105.257 162.417 105.294L162.086 105.421L162.413 106.273C162.448 106.365 162.4 106.473 162.303 106.51C162.211 106.546 162.103 106.498 162.067 106.405L161.74 105.553L161.739 105.564ZM161.608 105.224L160.484 102.321L159.263 106.134L161.612 105.233L161.608 105.224Z" fill="#F8F8F8"/>
<path d="M163.911 105.332C163.811 105.291 163.767 105.176 163.816 105.083C163.858 104.988 163.974 104.943 164.069 104.986C164.429 105.138 164.814 105.138 165.155 105.008C165.496 104.877 165.778 104.621 165.94 104.257C166.102 103.894 166.097 103.51 165.966 103.169C165.833 102.824 165.574 102.533 165.217 102.374C164.86 102.215 164.471 102.221 164.131 102.352C163.785 102.485 163.499 102.743 163.337 103.106C163.294 103.202 163.181 103.25 163.088 103.201C163.06 103.196 163.037 103.179 163.026 103.162L163.022 103.153C163.022 103.153 163.008 103.143 163.004 103.133C162.989 103.123 162.981 103.1 162.974 103.082C162.97 103.072 162.969 103.057 162.964 103.043L162.43 100.95C162.409 100.894 162.419 100.838 162.45 100.794C162.467 100.756 162.503 100.726 162.549 100.709L164.86 99.8213C164.96 99.7778 165.068 99.826 165.105 99.9227C165.146 100.029 165.096 100.132 164.999 100.169L162.835 101L163.229 102.55C163.426 102.306 163.684 102.111 163.984 101.997C164.416 101.83 164.898 101.82 165.359 102.029C165.821 102.227 166.14 102.59 166.31 103.032C166.472 103.456 166.49 103.956 166.279 104.412C166.076 104.86 165.704 105.198 165.276 105.363C164.843 105.529 164.348 105.534 163.896 105.333L163.911 105.332Z" fill="#F8F8F8"/>
<path d="M167.325 100.118C167.435 99.3836 167.832 98.7131 168.646 98.369C168.735 98.3245 168.843 98.3727 168.887 98.4613C168.926 98.5626 168.878 98.6709 168.788 98.7109C168.105 99.01 167.803 99.5326 167.688 100.169C167.629 100.524 167.653 100.916 167.72 101.298C167.889 100.842 168.241 100.453 168.729 100.266C169.646 99.9138 170.659 100.365 171.006 101.267C171.354 102.175 170.907 103.186 169.997 103.541C169.108 103.882 168.117 103.46 167.747 102.592C167.692 102.492 167.652 102.386 167.608 102.271C167.359 101.61 167.215 100.836 167.33 100.116L167.325 100.118ZM168.082 102.432C168.096 102.469 168.116 102.493 168.131 102.519C168.14 102.542 168.145 102.556 168.141 102.573C168.471 103.17 169.206 103.448 169.855 103.199C170.578 102.921 170.934 102.114 170.662 101.405C170.39 100.695 169.582 100.34 168.859 100.617C168.15 100.89 167.794 101.697 168.066 102.406L168.077 102.434L168.082 102.432Z" fill="#F8F8F8"/>
<path d="M141.352 124.404L98.0947 141.139L98.917 143.264L142.174 126.529L141.352 124.404Z" fill="url(#paint11_linear_10_2557)"/>
<path d="M130.547 134.015L99.9221 145.863L100.744 147.989L131.369 136.141L130.547 134.015Z" fill="url(#paint12_linear_10_2557)"/>
<path d="M142.226 83.1889L122.78 90.7119C122.193 90.939 121.901 91.5988 122.128 92.1857C122.355 92.7726 123.015 93.0644 123.602 92.8373L143.048 85.3143C143.635 85.0872 143.926 84.4274 143.699 83.8405C143.472 83.2536 142.812 82.9618 142.226 83.1889Z" fill="#3B3B3B"/>
<path d="M177.861 137.486L76.5081 157.188L84.3953 197.764L185.749 178.063L177.861 137.486Z" fill="url(#paint13_linear_10_2557)"/>
<path opacity="0.2" d="M177.861 137.486L76.5081 157.188L84.3953 197.764L185.749 178.063L177.861 137.486Z" fill="black"/>
<path d="M187.223 202.348L87.3666 207.401C82.3946 207.653 77.9948 204.209 77.0449 199.322L62.6705 125.372C62.3313 123.627 64.1244 122.24 65.7282 123.007C67.5895 123.896 69.6577 124.273 71.7191 124.099L161.423 116.426C166.516 115.99 171.117 119.464 172.092 124.481L187.227 202.342C187.227 202.344 187.225 202.347 187.223 202.348Z" fill="url(#paint14_linear_10_2557)"/>
<path d="M166.013 165.929C168.337 165.478 169.804 162.965 169.289 160.318C168.775 157.671 166.474 155.891 164.15 156.342C161.826 156.794 160.359 159.306 160.874 161.954C161.389 164.601 163.69 166.381 166.013 165.929Z" fill="#EBEBEB"/>
<path d="M167.038 160.756C167.277 161.986 166.595 163.154 165.515 163.363C164.435 163.573 163.365 162.746 163.126 161.516C162.887 160.287 163.569 159.119 164.649 158.909C165.729 158.699 166.799 159.526 167.038 160.756Z" fill="#DBDBDB"/>
</g>
<defs>
<filter id="filter0_f_10_2557" x="0" y="0" width="276" height="276" filterUnits="userSpaceOnUse" color-interpolation-filters="sRGB">
<feFlood flood-opacity="0" result="BackgroundImageFix"/>
<feBlend mode="normal" in="SourceGraphic" in2="BackgroundImageFix" result="shape"/>
<feGaussianBlur stdDeviation="27" result="effect1_foregroundBlur_10_2557"/>
</filter>
<linearGradient id="paint0_linear_10_2557" x1="55.0834" y1="23" x2="230.623" y2="59.541" gradientUnits="userSpaceOnUse">
<stop stop-color="#A259FF"/>
<stop offset="1" stop-color="#3B3B3B"/>
</linearGradient>
<linearGradient id="paint1_linear_10_2557" x1="81.2" y1="54" x2="243.658" y2="85.3311" gradientUnits="userSpaceOnUse">
<stop stop-color="#A259FF" stop-opacity="0"/>
<stop offset="1" stop-color="#FF6250"/>
</linearGradient>
<linearGradient id="paint2_linear_10_2557" x1="225.689" y1="219.134" x2="240.419" y2="230.703" gradientUnits="userSpaceOnUse">
<stop stop-color="#A259FF"/>
<stop offset="1" stop-color="#377DF7"/>
</linearGradient>
<linearGradient id="paint3_linear_10_2557" x1="58.3964" y1="235.525" x2="57.9043" y2="250.181" gradientUnits="userSpaceOnUse">
<stop stop-color="#A259FF"/>
<stop offset="1" stop-color="#377DF7"/>
</linearGradient>
<linearGradient id="paint4_linear_10_2557" x1="231.127" y1="67.2577" x2="245.767" y2="66.4181" gradientUnits="userSpaceOnUse">
<stop stop-color="#A259FF"/>
<stop offset="1" stop-color="#377DF7"/>
</linearGradient>
<linearGradient id="paint5_linear_10_2557" x1="175.551" y1="134.068" x2="211.652" y2="140.31" gradientUnits="userSpaceOnUse">
<stop stop-color="#A259FF"/>
<stop offset="1" stop-color="#3B3B3B"/>
</linearGradient>
<linearGradient id="paint6_linear_10_2557" x1="151.798" y1="224.896" x2="112.799" y2="148.311" gradientUnits="userSpaceOnUse">
<stop stop-color="#A259FF"/>
<stop offset="1" stop-color="#3B3B3B"/>
</linearGradient>
<linearGradient id="paint7_linear_10_2557" x1="88.0162" y1="93.8991" x2="181.937" y2="85.7868" gradientUnits="userSpaceOnUse">
<stop stop-color="#A259FF"/>
<stop offset="1" stop-color="#FF6250"/>
</linearGradient>
<linearGradient id="paint8_linear_10_2557" x1="160.271" y1="116.516" x2="170.129" y2="114.763" gradientUnits="userSpaceOnUse">
<stop stop-color="#A259FF"/>
<stop offset="1" stop-color="#FF6250"/>
</linearGradient>
<linearGradient id="paint9_linear_10_2557" x1="166.108" y1="114.254" x2="175.965" y2="112.501" gradientUnits="userSpaceOnUse">
<stop stop-color="#A259FF"/>
<stop offset="1" stop-color="#3B3B3B"/>
</linearGradient>
<linearGradient id="paint10_linear_10_2557" x1="87.1093" y1="104.517" x2="104.739" y2="102.801" gradientUnits="userSpaceOnUse">
<stop stop-color="#A259FF"/>
<stop offset="1" stop-color="#3B3B3B"/>
</linearGradient>
<linearGradient id="paint11_linear_10_2557" x1="105.098" y1="138.429" x2="111.758" y2="147.786" gradientUnits="userSpaceOnUse">
<stop stop-color="#A259FF"/>
<stop offset="1" stop-color="#FF6250"/>
</linearGradient>
<linearGradient id="paint12_linear_10_2557" x1="104.88" y1="143.945" x2="112.188" y2="152.369" gradientUnits="userSpaceOnUse">
<stop stop-color="#A259FF"/>
<stop offset="1" stop-color="#FF6250"/>
</linearGradient>
<linearGradient id="paint13_linear_10_2557" x1="92.9176" y1="153.998" x2="183.151" y2="177.706" gradientUnits="userSpaceOnUse">
<stop stop-color="#A259FF"/>
<stop offset="1" stop-color="#3B3B3B"/>
</linearGradient>
<linearGradient id="paint14_linear_10_2557" x1="160.295" y1="177.717" x2="3.98111" y2="102.697" gradientUnits="userSpaceOnUse">
<stop stop-color="#A259FF"/>
<stop offset="0.666667" stop-color="white"/>
</linearGradient>
<clipPath id="clip0_10_2557">
<rect width="276" height="276" fill="white"/>
</clipPath>
</defs>
</svg>
