<svg width="32" height="33" viewBox="0 0 32 33" fill="none" xmlns="http://www.w3.org/2000/svg">
<path fill-rule="evenodd" clip-rule="evenodd" d="M6.00781 13.1729C6.5601 13.1729 7.00781 13.6206 7.00781 14.1729V26.7229H25.0078V14.1729C25.0078 13.6206 25.4555 13.1729 26.0078 13.1729C26.5601 13.1729 27.0078 13.6206 27.0078 14.1729V26.7229C27.0078 27.2533 26.7971 27.762 26.422 28.1371C26.047 28.5121 25.5382 28.7229 25.0078 28.7229H7.00781C6.47738 28.7229 5.96867 28.5121 5.5936 28.1371C5.21853 27.762 5.00781 27.2533 5.00781 26.7229V14.1729C5.00781 13.6206 5.45553 13.1729 6.00781 13.1729Z" fill="#A259FF"/>
<path fill-rule="evenodd" clip-rule="evenodd" d="M3.00781 5.72266C3.00781 5.17037 3.45553 4.72266 4.00781 4.72266H28.0078C28.5601 4.72266 29.0078 5.17037 29.0078 5.72266C29.0078 6.27494 28.5601 6.72266 28.0078 6.72266H4.00781C3.45553 6.72266 3.00781 6.27494 3.00781 5.72266Z" fill="#A259FF"/>
<path fill-rule="evenodd" clip-rule="evenodd" d="M4.00781 7.72266C4.5601 7.72266 5.00781 8.17037 5.00781 8.72266V10.7227C5.00781 11.5183 5.32388 12.2814 5.88649 12.844C6.4491 13.4066 7.21216 13.7227 8.00781 13.7227C8.80346 13.7227 9.56652 13.4066 10.1291 12.844C10.6917 12.2814 11.0078 11.5183 11.0078 10.7227V8.72266C11.0078 8.17037 11.4555 7.72266 12.0078 7.72266C12.5601 7.72266 13.0078 8.17037 13.0078 8.72266V10.7227C13.0078 12.0487 12.481 13.3205 11.5433 14.2582C10.6057 15.1959 9.3339 15.7227 8.00781 15.7227C6.68173 15.7227 5.40996 15.1959 4.47228 14.2582C3.5346 13.3205 3.00781 12.0487 3.00781 10.7227V8.72266C3.00781 8.17037 3.45553 7.72266 4.00781 7.72266Z" fill="#A259FF"/>
<path fill-rule="evenodd" clip-rule="evenodd" d="M12.0078 7.72266C12.5601 7.72266 13.0078 8.17037 13.0078 8.72266V10.7227C13.0078 11.5183 13.3239 12.2814 13.8865 12.844C14.4491 13.4066 15.2122 13.7227 16.0078 13.7227C16.8035 13.7227 17.5665 13.4066 18.1291 12.844C18.6917 12.2814 19.0078 11.5183 19.0078 10.7227V8.72266C19.0078 8.17037 19.4555 7.72266 20.0078 7.72266C20.5601 7.72266 21.0078 8.17037 21.0078 8.72266V10.7227C21.0078 12.0487 20.481 13.3205 19.5433 14.2582C18.6057 15.1959 17.3339 15.7227 16.0078 15.7227C14.6817 15.7227 13.41 15.1959 12.4723 14.2582C11.5346 13.3205 11.0078 12.0487 11.0078 10.7227V8.72266C11.0078 8.17037 11.4555 7.72266 12.0078 7.72266Z" fill="#A259FF"/>
<path fill-rule="evenodd" clip-rule="evenodd" d="M20.0078 7.72266C20.5601 7.72266 21.0078 8.17037 21.0078 8.72266V10.7227C21.0078 11.5183 21.3239 12.2814 21.8865 12.844C22.4491 13.4066 23.2122 13.7227 24.0078 13.7227C24.8035 13.7227 25.5665 13.4066 26.1291 12.844C26.6917 12.2814 27.0078 11.5183 27.0078 10.7227V8.72266C27.0078 8.17037 27.4555 7.72266 28.0078 7.72266C28.5601 7.72266 29.0078 8.17037 29.0078 8.72266V10.7227C29.0078 12.0487 28.481 13.3205 27.5433 14.2582C26.6057 15.1959 25.3339 15.7227 24.0078 15.7227C22.6817 15.7227 21.41 15.1959 20.4723 14.2582C19.5346 13.3205 19.0078 12.0487 19.0078 10.7227V8.72266C19.0078 8.17037 19.4555 7.72266 20.0078 7.72266Z" fill="#A259FF"/>
</svg>
