<svg width="32" height="33" viewBox="0 0 32 33" fill="none" xmlns="http://www.w3.org/2000/svg">
<path d="M16.0085 11.7231C16.0085 8.97311 18.321 6.68561 21.071 6.72311C22.034 6.73423 22.9734 7.02326 23.7761 7.55546C24.5789 8.08765 25.2108 8.84036 25.596 9.72311H30.0085L25.971 13.7606C25.7104 17.8163 23.9151 21.6206 20.95 24.3999C17.9849 27.1793 14.0726 28.7251 10.0085 28.7231C6.00849 28.7231 5.00849 27.2231 5.00849 27.2231C5.00849 27.2231 9.00849 25.7231 11.0085 22.7231C11.0085 22.7231 3.00849 18.7231 5.00849 7.72311C5.00849 7.72311 10.0085 12.7231 16.0085 13.7231V11.7231Z" stroke="#858584" stroke-width="2" stroke-linecap="round" stroke-linejoin="round"/>
</svg>
