<svg width="21" height="21" viewBox="0 0 21 21" fill="none" xmlns="http://www.w3.org/2000/svg">
<path fill-rule="evenodd" clip-rule="evenodd" d="M10.5 3.625C8.08375 3.625 6.125 5.58375 6.125 8C6.125 10.4162 8.08375 12.375 10.5 12.375C12.9162 12.375 14.875 10.4162 14.875 8C14.875 5.58375 12.9162 3.625 10.5 3.625ZM4.875 8C4.875 4.8934 7.3934 2.375 10.5 2.375C13.6066 2.375 16.125 4.8934 16.125 8C16.125 11.1066 13.6066 13.625 10.5 13.625C7.3934 13.625 4.875 11.1066 4.875 8Z" fill="black"/>
<path fill-rule="evenodd" clip-rule="evenodd" d="M10.5001 13.624C9.07374 13.624 7.67251 13.9995 6.43728 14.7128C5.20205 15.426 4.17634 16.4518 3.46327 17.6872C3.29071 17.9861 2.90848 18.0886 2.60953 17.916C2.31058 17.7435 2.20812 17.3612 2.38068 17.0623C3.20345 15.6369 4.38696 14.4532 5.81223 13.6303C7.2375 12.8073 8.8543 12.374 10.5001 12.374C12.1459 12.374 13.7627 12.8073 15.188 13.6303C16.6132 14.4532 17.7968 15.6369 18.6195 17.0623C18.7921 17.3612 18.6896 17.7435 18.3907 17.916C18.0917 18.0886 17.7095 17.9861 17.5369 17.6872C16.8239 16.4518 15.7982 15.426 14.5629 14.7128C13.3277 13.9995 11.9265 13.624 10.5001 13.624Z" fill="black"/>
</svg>
