<svg width="14" height="14" viewBox="0 0 14 14" fill="none" xmlns="http://www.w3.org/2000/svg">
<path d="M8.01083 8.53986C8.01083 8.61274 7.98347 8.67689 7.94333 8.72193V8.3285C7.96575 8.33756 7.98122 8.34474 7.99285 8.35101C7.99962 8.37406 8.01083 8.42933 8.01083 8.53986ZM7.98782 8.33732C7.98785 8.33728 7.98819 8.33789 7.98879 8.33927C7.98809 8.33805 7.9878 8.33736 7.98782 8.33732Z" fill="white" stroke="white"/>
<path d="M1.66605 6.95743C1.65539 4.01453 4.03879 1.61931 6.98326 1.60841C9.92763 1.60332 12.3221 3.98236 12.3327 6.92605C12.3434 9.8691 9.95975 12.2644 7.01508 12.2751C4.07203 12.2857 1.67672 9.9021 1.66605 6.95743ZM9.88522 8.54007C9.88522 7.91146 9.69712 7.44228 9.39478 7.10425C9.10356 6.77865 8.74548 6.61926 8.48375 6.52844L7.93689 6.33287V5.38892C7.97815 5.45459 8.00439 5.53739 8.00439 5.63507C8.00439 6.15038 8.42658 6.57257 8.94189 6.57257C9.4572 6.57257 9.87939 6.15038 9.87939 5.63507C9.87939 4.47927 9.03985 3.49793 7.92574 3.35602C7.85583 2.90836 7.46574 2.56257 6.99939 2.56257C6.53819 2.56257 6.15159 2.90075 6.07548 3.34119C4.97284 3.39859 4.11355 4.33618 4.11355 5.46007C4.11355 6.08868 4.30166 6.55787 4.604 6.8959C4.89521 7.22149 5.25328 7.38088 5.51501 7.4717L6.06189 7.66728V8.61123C6.02062 8.54556 5.99439 8.46276 5.99439 8.36507C5.99439 7.84977 5.5722 7.42757 5.05689 7.42757C4.54158 7.42757 4.11939 7.84977 4.11939 8.36507C4.11939 9.52088 4.95892 10.5022 6.07304 10.6441C6.14294 11.0918 6.53303 11.4376 6.99939 11.4376C7.46058 11.4376 7.84719 11.0994 7.9233 10.659C9.02593 10.6016 9.88522 9.66397 9.88522 8.54007Z" fill="white" stroke="white"/>
<path d="M5.99414 5.46539C5.99414 5.37753 6.02392 5.31549 6.06164 5.27489V5.67675C6.03923 5.66769 6.02375 5.6605 6.01213 5.65424C6.00535 5.63119 5.99414 5.57592 5.99414 5.46539ZM6.01715 5.66793C6.01713 5.66796 6.01678 5.66735 6.01619 5.66598C6.01688 5.6672 6.01718 5.66789 6.01715 5.66793Z" fill="white" stroke="white"/>
</svg>
