<svg width="32" height="33" viewBox="0 0 32 33" fill="none" xmlns="http://www.w3.org/2000/svg">
<path fill-rule="evenodd" clip-rule="evenodd" d="M13.536 11.841C13.8611 11.667 14.2557 11.686 14.5625 11.8906L20.5625 15.8906C20.8407 16.0761 21.0078 16.3883 21.0078 16.7227C21.0078 17.057 20.8407 17.3692 20.5625 17.5547L14.5625 21.5547C14.2557 21.7593 13.8611 21.7784 13.536 21.6043C13.2108 21.4303 13.0078 21.0915 13.0078 20.7227V12.7227C13.0078 12.3539 13.2108 12.015 13.536 11.841ZM15.0078 14.5912V18.8541L18.205 16.7227L15.0078 14.5912Z" fill="#858584"/>
<path fill-rule="evenodd" clip-rule="evenodd" d="M16.0063 5.7725L15.9895 5.77246L15.9266 5.77249C15.8721 5.77261 15.7928 5.77301 15.6909 5.77409C15.4873 5.77625 15.1934 5.78115 14.8284 5.79211C14.099 5.814 13.0824 5.86015 11.9315 5.95731C9.65514 6.1495 6.75709 6.54837 4.52589 7.40088L4.51119 7.40663C4.07292 7.58207 3.68201 7.85805 3.36999 8.21232C3.05798 8.56659 2.83359 8.98923 2.71492 9.44615L2.71395 9.44992C2.40254 10.6685 2.00781 12.9282 2.00781 16.7225C2.00781 20.5169 2.40254 22.7766 2.71395 23.9951L2.71492 23.9989C2.83359 24.4558 3.05798 24.8785 3.36999 25.2327C3.68201 25.587 4.07292 25.863 4.51119 26.0384L4.52589 26.0442C6.75709 26.8967 9.65514 27.2955 11.9315 27.4877C13.0824 27.5849 14.099 27.631 14.8284 27.6529C15.1934 27.6639 15.4873 27.6688 15.6909 27.6709C15.7928 27.672 15.8721 27.6724 15.9266 27.6725L15.9895 27.6726L16.0063 27.6725H16.0093L16.0262 27.6726L16.089 27.6725C16.1435 27.6724 16.2228 27.672 16.3247 27.6709C16.5284 27.6688 16.8222 27.6639 17.1872 27.6529C17.9166 27.631 18.9333 27.5849 20.0841 27.4877C22.3605 27.2955 25.2585 26.8967 27.4897 26.0442L27.5044 26.0384C27.9427 25.863 28.3336 25.587 28.6456 25.2327C28.9576 24.8785 29.182 24.4558 29.3007 23.9989L29.3017 23.9951C29.6131 22.7766 30.0078 20.5169 30.0078 16.7225C30.0078 12.9282 29.6131 10.6685 29.3017 9.44992L29.3007 9.44615C29.182 8.98923 28.9576 8.56659 28.6456 8.21232C28.3336 7.85805 27.9427 7.58207 27.5044 7.40663L27.4897 7.40088C25.2585 6.54837 22.3605 6.1495 20.0841 5.95731C18.9333 5.86015 17.9166 5.814 17.1872 5.79211C16.8222 5.78115 16.5284 5.77625 16.3247 5.77409C16.2228 5.77301 16.1435 5.77261 16.089 5.77249L16.0262 5.77246L16.0093 5.7725H16.0063ZM16.0026 25.6725L16.0132 25.6725L16.0164 25.6725L16.0295 25.6726L16.0845 25.6726C16.1337 25.6724 16.2075 25.6721 16.3035 25.6711C16.4956 25.669 16.7764 25.6644 17.1272 25.6538C17.8294 25.6328 18.8089 25.5883 19.9159 25.4948C22.1519 25.306 24.8119 24.9245 26.7674 24.1791C26.9122 24.12 27.0414 24.0282 27.1448 23.9108C27.2493 23.7922 27.3245 23.6507 27.3645 23.4977C27.6281 22.4655 28.0078 20.3756 28.0078 16.7225C28.0078 13.0695 27.6281 10.9795 27.3645 9.9473C27.3245 9.79433 27.2493 9.65285 27.1448 9.53419C27.0414 9.4168 26.9122 9.32499 26.7674 9.26592C24.8119 8.52057 22.1519 8.13901 19.9159 7.95022C18.8089 7.85677 17.8294 7.81228 17.1272 7.79121C16.7764 7.78068 16.4956 7.77601 16.3035 7.77398C16.2075 7.77296 16.1337 7.7726 16.0845 7.77249L16.0295 7.77246L16.0164 7.77249L16.0136 7.7725L16.0024 7.77256L15.9992 7.77249L15.9861 7.77246L15.9311 7.77249C15.8819 7.7726 15.8082 7.77296 15.7121 7.77398C15.5201 7.77601 15.2392 7.78068 14.8884 7.79121C14.1862 7.81228 13.2067 7.85677 12.0998 7.95022C9.86371 8.13901 7.20372 8.52057 5.2482 9.26592C5.10342 9.32499 4.97426 9.41681 4.87087 9.53419C4.76637 9.65285 4.69111 9.79433 4.65112 9.9473C4.38755 10.9795 4.00781 13.0695 4.00781 16.7225C4.00781 20.3756 4.38755 22.4655 4.65112 23.4977C4.69111 23.6507 4.76636 23.7922 4.87087 23.9108C4.97426 24.0282 5.10342 24.12 5.24819 24.1791C7.20371 24.9245 9.86371 25.306 12.0998 25.4948C13.2067 25.5883 14.1862 25.6328 14.8884 25.6538C15.2392 25.6644 15.5201 25.669 15.7121 25.6711C15.8082 25.6721 15.8819 25.6724 15.9311 25.6726L15.9861 25.6726L15.9992 25.6725L16.0026 25.6725Z" fill="#858584"/>
</svg>
