<svg width="32" height="33" viewBox="0 0 32 33" fill="none" xmlns="http://www.w3.org/2000/svg">
<path fill-rule="evenodd" clip-rule="evenodd" d="M13.536 11.841C13.8611 11.667 14.2557 11.686 14.5625 11.8906L20.5625 15.8906C20.8407 16.0761 21.0078 16.3883 21.0078 16.7227C21.0078 17.057 20.8407 17.3692 20.5625 17.5547L14.5625 21.5547C14.2557 21.7593 13.8611 21.7784 13.536 21.6043C13.2108 21.4303 13.0078 21.0915 13.0078 20.7227V12.7227C13.0078 12.3539 13.2108 12.015 13.536 11.841ZM15.0078 14.5912V18.8541L18.205 16.7227L15.0078 14.5912Z" fill="#858584"/>
<path fill-rule="evenodd" clip-rule="evenodd" d="M16.0063 5.77348L15.9895 5.77344L15.9266 5.77347C15.8721 5.77359 15.7928 5.77398 15.6909 5.77506C15.4873 5.77723 15.1934 5.78213 14.8284 5.79309C14.099 5.81498 13.0824 5.86112 11.9315 5.95829C9.65514 6.15048 6.75709 6.54934 4.52589 7.40186L4.51119 7.40761C4.07292 7.58304 3.68201 7.85902 3.36999 8.21329C3.05798 8.56756 2.83359 8.9902 2.71492 9.44713L2.71395 9.4509C2.40254 10.6695 2.00781 12.9291 2.00781 16.7235C2.00781 20.5179 2.40254 22.7775 2.71395 23.9961L2.71492 23.9999C2.83359 24.4568 3.05798 24.8794 3.36999 25.2337C3.68201 25.588 4.07292 25.8639 4.51119 26.0394L4.52589 26.0451C6.75709 26.8976 9.65514 27.2965 11.9315 27.4887C13.0824 27.5859 14.099 27.632 14.8284 27.6539C15.1934 27.6649 15.4873 27.6698 15.6909 27.6719C15.7928 27.673 15.8721 27.6734 15.9266 27.6735L15.9895 27.6736L16.0063 27.6735H16.0093L16.0262 27.6736L16.089 27.6735C16.1435 27.6734 16.2228 27.673 16.3247 27.6719C16.5284 27.6698 16.8222 27.6649 17.1872 27.6539C17.9166 27.632 18.9333 27.5859 20.0841 27.4887C22.3605 27.2965 25.2585 26.8976 27.4897 26.0451L27.5044 26.0394C27.9427 25.8639 28.3336 25.588 28.6456 25.2337C28.9576 24.8794 29.182 24.4568 29.3007 23.9999L29.3017 23.9961C29.6131 22.7775 30.0078 20.5179 30.0078 16.7235C30.0078 12.9291 29.6131 10.6695 29.3017 9.45089L29.3007 9.44713C29.182 8.9902 28.9576 8.56756 28.6456 8.21329C28.3336 7.85902 27.9427 7.58304 27.5044 7.40761L27.4897 7.40186C25.2585 6.54934 22.3605 6.15048 20.0841 5.95829C18.9333 5.86112 17.9166 5.81498 17.1872 5.79309C16.8222 5.78213 16.5284 5.77723 16.3247 5.77506C16.2228 5.77398 16.1435 5.77359 16.089 5.77347L16.0262 5.77344L16.0093 5.77348H16.0063ZM16.0026 25.6735L16.0132 25.6735L16.0164 25.6735L16.0295 25.6736L16.0845 25.6735C16.1337 25.6734 16.2075 25.6731 16.3035 25.672C16.4956 25.67 16.7764 25.6653 17.1272 25.6548C17.8294 25.6337 18.8089 25.5892 19.9159 25.4958C22.1519 25.307 24.8119 24.9254 26.7674 24.1801C26.9122 24.121 27.0414 24.0292 27.1448 23.9118C27.2493 23.7932 27.3245 23.6517 27.3645 23.4987C27.6281 22.4665 28.0078 20.3766 28.0078 16.7235C28.0078 13.0704 27.6281 10.9805 27.3645 9.94827C27.3245 9.79531 27.2493 9.65383 27.1448 9.53517C27.0414 9.41778 26.9122 9.32597 26.7674 9.2669C24.8119 8.52154 22.1519 8.13999 19.9159 7.9512C18.8089 7.85774 17.8294 7.81326 17.1272 7.79219C16.7764 7.78166 16.4956 7.77699 16.3035 7.77495C16.2075 7.77393 16.1337 7.77357 16.0845 7.77346L16.0295 7.77343L16.0164 7.77347L16.0136 7.77348L16.0024 7.77354L15.9992 7.77347L15.9861 7.77343L15.9311 7.77346C15.8819 7.77357 15.8082 7.77393 15.7121 7.77495C15.5201 7.77699 15.2392 7.78166 14.8884 7.79219C14.1862 7.81326 13.2067 7.85774 12.0998 7.9512C9.86371 8.13999 7.20372 8.52155 5.2482 9.2669C5.10342 9.32597 4.97426 9.41778 4.87087 9.53517C4.76637 9.65383 4.69111 9.79531 4.65112 9.94827C4.38755 10.9805 4.00781 13.0704 4.00781 16.7235C4.00781 20.3765 4.38755 22.4665 4.65112 23.4987C4.69111 23.6517 4.76636 23.7932 4.87087 23.9118C4.97426 24.0292 5.10342 24.121 5.24819 24.1801C7.20371 24.9254 9.86371 25.307 12.0998 25.4958C13.2067 25.5892 14.1862 25.6337 14.8884 25.6548C15.2392 25.6653 15.5201 25.67 15.7121 25.672C15.8082 25.6731 15.8819 25.6734 15.9311 25.6735L15.9861 25.6736L15.9992 25.6735L16.0026 25.6735Z" fill="#858584"/>
</svg>
